<?xml version="1.0" standalone="no"?>
<!DOCTYPE svg PUBLIC "-//W3C//DTD SVG 20010904//EN"
 "http://www.w3.org/TR/2001/REC-SVG-20010904/DTD/svg10.dtd">
<svg version="1.0" xmlns="http://www.w3.org/2000/svg"
 width="828.000000pt" height="828.000000pt" viewBox="0 0 828.000000 828.000000"
 preserveAspectRatio="xMidYMid meet">
<metadata>
Created by potrace 1.14, written by Peter Selinger 2001-2017
</metadata>
<g transform="translate(0.000000,828.000000) scale(0.100000,-0.100000)"
fill="#000000" stroke="none">
<path d="M1616 8263 c17 -12 17 -13 -2 -14 -10 -1 -23 -1 -28 0 -4 1 -16 -7
-26 -18 -9 -12 -20 -18 -24 -14 -3 3 -6 1 -6 -5 0 -7 -5 -12 -11 -12 -5 0 -8
4 -5 9 4 5 -3 7 -14 4 -11 -3 -20 -10 -20 -17 0 -6 -4 -5 -9 3 -5 7 -14 10
-20 7 -6 -4 -9 -12 -6 -17 4 -5 1 -9 -4 -9 -6 0 -10 -6 -8 -12 1 -7 -4 -12
-10 -10 -7 1 -13 -2 -13 -7 0 -5 -10 -7 -22 -3 -17 4 -20 2 -14 -13 5 -15 4
-16 -9 -5 -9 7 -15 9 -13 4 1 -5 -10 -22 -26 -39 -16 -16 -26 -24 -21 -16 5
10 4 12 -4 7 -6 -4 -9 -11 -6 -16 3 -5 0 -12 -5 -15 -6 -4 -15 -18 -21 -32 -5
-13 -13 -21 -19 -18 -6 3 -7 -1 -4 -10 4 -9 -3 -23 -17 -36 -13 -11 -17 -17
-9 -13 13 7 13 5 1 -9 -7 -9 -10 -17 -5 -17 5 0 3 -4 -5 -9 -8 -5 -16 -17 -17
-25 -1 -9 2 -14 7 -10 12 7 11 -3 -2 -27 -5 -11 -14 -17 -20 -14 -5 4 -8 1 -7
-7 2 -7 -2 -12 -7 -11 -6 1 -12 -7 -12 -18 -1 -11 2 -17 7 -14 10 6 8 -14 -3
-32 -4 -6 -1 -14 5 -16 10 -4 10 -6 0 -6 -8 -1 -10 -6 -5 -13 4 -7 9 -21 10
-32 2 -14 -1 -17 -14 -12 -17 6 -17 5 0 -8 14 -10 15 -15 5 -19 -9 -4 -10 -8
-3 -14 12 -9 13 -42 3 -59 -4 -6 -4 -14 -1 -18 4 -4 8 -16 10 -27 2 -17 -1
-20 -14 -15 -15 5 -15 4 1 -9 11 -8 14 -15 7 -15 -7 0 -9 -5 -4 -12 11 -19 13
-39 2 -32 -5 3 -9 0 -9 -5 0 -6 6 -11 13 -12 6 0 2 -4 -10 -9 l-23 -9 0 -1269
c0 -1053 2 -1271 13 -1281 8 -6 18 -7 23 -3 4 4 2 -1 -5 -10 -7 -10 -9 -18 -4
-18 5 0 10 -7 10 -15 0 -11 -4 -12 -14 -3 -11 8 -12 7 -7 -6 3 -9 10 -16 15
-16 5 0 9 -5 9 -11 0 -5 -5 -7 -12 -3 -7 4 -8 3 -4 -5 4 -6 11 -9 16 -6 4 3
14 -3 21 -12 10 -12 10 -14 2 -9 -7 4 -13 2 -13 -3 0 -6 6 -11 13 -11 8 0 7
-4 -3 -10 -13 -8 -12 -10 3 -10 9 0 17 -3 18 -7 0 -5 2 -16 4 -26 2 -9 -1 -15
-6 -11 -5 3 -6 10 -3 16 4 7 2 8 -4 4 -14 -8 -4 -36 13 -36 7 0 11 -10 10 -24
-2 -19 1 -23 13 -19 10 4 13 2 8 -5 -4 -7 -2 -12 4 -12 6 0 8 -4 5 -10 -3 -5
2 -10 12 -10 14 0 15 -2 5 -9 -11 -7 -11 -9 2 -14 9 -4 16 -14 16 -24 0 -14 2
-15 9 -5 6 10 10 4 15 -18 4 -23 10 -31 21 -26 10 3 15 -1 15 -12 0 -12 2 -14
8 -4 6 9 12 6 20 -12 6 -14 27 -32 47 -40 19 -8 35 -20 35 -26 0 -6 5 -8 12
-4 8 5 9 2 5 -9 -5 -13 -1 -17 14 -17 12 0 28 -8 37 -18 10 -10 13 -12 8 -5
-5 8 -5 13 1 13 5 0 15 -11 21 -25 6 -14 20 -25 29 -25 10 0 27 -12 38 -26 11
-14 30 -30 43 -35 13 -5 21 -13 18 -18 -4 -5 3 -7 13 -4 13 3 21 -2 26 -16 3
-12 13 -21 21 -21 18 0 45 -25 39 -34 -3 -3 1 -2 7 4 18 15 31 12 24 -6 -3 -8
-2 -12 4 -9 6 3 11 1 11 -4 1 -6 2 -15 3 -20 0 -5 5 -13 9 -18 5 -4 8 -3 7 2
-5 25 2 26 20 5 13 -15 20 -18 20 -9 1 9 4 8 12 -5 6 -10 20 -29 31 -42 17
-20 23 -21 36 -11 9 8 12 8 8 1 -4 -7 0 -15 9 -18 9 -3 12 -11 8 -18 -5 -9 -2
-8 9 1 15 12 17 12 12 -1 -3 -8 1 -21 10 -28 8 -7 15 -9 15 -6 0 4 9 2 20 -4
11 -6 18 -15 16 -19 -9 -13 27 -37 52 -35 22 1 47 -26 37 -40 -3 -3 -2 -4 2
-1 3 3 12 -3 20 -13 9 -10 11 -11 7 -2 -7 13 -5 13 9 2 9 -8 22 -10 28 -6 8 5
9 3 5 -5 -6 -8 -2 -11 10 -9 10 2 19 -3 20 -9 1 -7 2 -18 3 -24 0 -5 5 -7 11
-4 5 3 10 2 10 -4 0 -6 11 -13 25 -17 14 -3 23 -10 20 -14 -3 -4 2 -11 11 -14
8 -3 12 -11 9 -16 -4 -6 -3 -9 2 -8 14 4 53 -13 53 -23 0 -6 4 -7 10 -4 6 3
10 0 10 -8 0 -16 27 -30 40 -22 5 3 12 0 16 -6 5 -8 3 -9 -6 -4 -9 5 -11 4 -6
-3 4 -7 16 -12 28 -12 11 0 22 -8 25 -20 6 -22 36 -35 55 -24 7 4 10 4 7 0
-10 -11 38 -59 50 -51 6 3 11 -2 11 -12 0 -15 2 -16 10 -3 8 13 10 12 10 -2 0
-10 7 -18 16 -18 8 0 13 -4 10 -9 -3 -5 8 -14 24 -20 17 -5 30 -17 30 -25 0
-9 7 -16 16 -16 8 0 13 -4 10 -8 -2 -4 4 -9 15 -9 23 -2 51 -28 41 -38 -4 -5
-2 -5 4 -2 6 4 19 -2 29 -13 10 -11 24 -16 33 -13 10 4 13 2 8 -5 -4 -7 -1
-12 8 -12 9 0 16 -6 16 -12 0 -10 2 -10 8 -2 5 9 10 8 19 -1 10 -11 10 -15 0
-18 -7 -3 -4 -6 7 -6 10 -1 27 -11 37 -23 11 -11 19 -18 19 -14 0 4 6 1 14 -6
8 -7 12 -16 9 -20 -2 -4 4 -5 13 -1 12 4 15 3 10 -5 -5 -8 0 -12 14 -12 12 0
18 -4 15 -10 -3 -5 3 -10 14 -10 11 0 23 -5 27 -12 5 -7 3 -8 -7 -3 -12 8 -12
6 0 -9 8 -9 24 -22 35 -27 19 -9 20 -9 4 4 -28 22 -21 28 11 9 17 -10 25 -19
19 -23 -6 -4 6 -14 26 -24 20 -9 34 -21 31 -25 -3 -4 5 -10 16 -13 12 -3 18
-10 14 -16 -3 -7 0 -8 9 -5 9 3 16 1 16 -6 0 -13 30 -46 31 -33 0 4 4 -2 10
-15 5 -14 13 -20 20 -16 8 4 9 3 5 -5 -4 -6 -13 -8 -19 -4 -7 4 -5 -2 3 -12
14 -17 13 -18 -4 -12 -16 6 -17 5 -6 -8 10 -12 10 -15 0 -15 -8 0 -10 -3 -7
-7 4 -3 1 -13 -6 -21 -10 -13 -9 -14 2 -7 11 6 13 4 8 -9 -4 -10 -7 -20 -7
-22 0 -3 -5 -2 -11 2 -8 5 -10 -3 -7 -24 3 -19 1 -29 -6 -25 -5 4 -7 -1 -3
-10 4 -10 0 -20 -9 -25 -8 -4 -16 -22 -17 -39 -1 -17 -6 -29 -11 -26 -5 3 -7
0 -4 -8 3 -8 -2 -20 -10 -28 -11 -11 -11 -16 -3 -19 8 -3 6 -8 -5 -17 -16 -11
-23 -29 -26 -62 -1 -7 -8 -13 -15 -13 -8 0 -12 -4 -8 -9 3 -5 1 -13 -5 -16 -8
-5 -7 -11 1 -21 9 -11 8 -15 -5 -20 -9 -3 -13 -11 -9 -17 4 -6 0 -8 -8 -5 -10
4 -15 -1 -16 -15 -1 -11 -8 -24 -14 -28 -16 -9 -19 -49 -5 -49 6 0 0 -7 -12
-16 -12 -8 -22 -21 -22 -29 0 -8 -9 -19 -20 -25 -17 -9 -18 -14 -9 -32 8 -15
8 -18 0 -14 -6 4 -11 1 -11 -8 0 -8 -11 -31 -24 -50 -18 -27 -26 -32 -36 -23
-10 9 -11 9 -6 0 4 -7 4 -19 -1 -25 -8 -14 -13 -61 -5 -53 3 3 10 -5 17 -18 6
-13 20 -22 32 -21 15 0 20 -5 18 -17 -2 -9 7 -22 21 -29 13 -8 24 -17 24 -21
0 -5 11 -19 25 -33 14 -14 25 -23 25 -20 0 3 6 -1 14 -8 8 -7 11 -17 8 -22 -3
-5 2 -7 11 -3 9 3 16 3 14 -1 -1 -4 16 -25 38 -46 22 -21 33 -35 25 -30 -13 7
-13 6 -1 -9 9 -12 17 -14 26 -7 14 12 26 3 19 -15 -3 -7 -1 -16 5 -20 6 -3 11
-11 11 -16 0 -6 -4 -7 -10 -4 -5 3 -10 4 -10 1 0 -3 12 -13 28 -21 15 -9 18
-14 7 -10 -17 5 -17 3 5 -18 14 -14 28 -22 33 -20 4 2 7 -5 7 -16 0 -12 5 -21
10 -21 6 0 10 -8 10 -17 0 -15 2 -16 10 -3 9 14 12 8 9 -16 0 -3 9 -14 21 -24
15 -13 17 -19 8 -23 -8 -3 -6 -6 6 -6 12 -1 16 -6 12 -17 -4 -11 1 -18 14 -21
11 -3 20 -12 20 -19 0 -8 4 -14 9 -14 5 0 12 -11 15 -25 4 -14 10 -23 15 -20
5 2 12 -2 15 -11 4 -10 2 -13 -6 -8 -6 4 -3 -5 8 -19 10 -15 26 -27 34 -27 11
-1 11 -3 2 -7 -10 -4 -10 -8 0 -21 10 -12 10 -14 1 -8 -9 5 -11 2 -7 -8 3 -8
12 -12 20 -9 8 3 14 -1 14 -11 0 -9 6 -16 13 -16 8 0 7 -4 -3 -10 -13 -8 -13
-10 2 -10 11 0 15 -6 11 -20 -3 -11 0 -20 6 -20 6 0 11 -8 11 -17 0 -9 3 -13
7 -10 7 8 44 -64 37 -74 -2 -4 6 -9 18 -12 19 -5 20 -8 7 -23 -8 -10 -9 -15
-2 -11 7 4 14 -1 18 -13 4 -11 11 -17 17 -14 7 5 8 2 3 -6 -4 -7 -2 -16 6 -21
12 -8 12 -11 -1 -19 -13 -9 -13 -11 -1 -19 12 -8 12 -12 2 -25 -12 -14 -10
-16 8 -16 11 0 21 -6 21 -14 0 -8 7 -17 16 -20 8 -3 13 -10 9 -15 -3 -5 -1
-12 5 -16 6 -4 8 -11 5 -16 -11 -17 -14 -50 -4 -44 5 4 9 0 9 -8 0 -8 11 -22
24 -31 16 -10 24 -23 21 -36 -2 -11 0 -20 6 -20 5 0 9 -5 9 -11 0 -5 -4 -8 -9
-5 -5 4 -4 -7 2 -24 6 -16 15 -30 19 -30 4 0 8 -9 8 -21 0 -11 5 -17 10 -14 9
6 14 -8 11 -28 0 -4 4 -7 10 -7 8 0 7 -6 -2 -17 -12 -15 -12 -16 1 -8 13 8 13
7 0 -10 -11 -14 -12 -19 -2 -22 6 -3 12 -11 12 -19 0 -9 4 -13 9 -9 6 3 10 -3
10 -12 -1 -29 7 -54 17 -61 13 -9 26 -42 16 -42 -4 0 -8 -9 -8 -20 0 -11 4
-20 8 -20 4 0 7 -3 7 -7 -4 -26 2 -43 13 -37 9 5 9 3 -1 -9 -11 -14 -11 -18 3
-23 12 -5 14 -10 6 -19 -7 -9 -8 -15 -1 -19 6 -4 8 -13 5 -20 -4 -10 2 -14 18
-13 20 2 23 6 19 40 -1 20 0 45 4 55 11 26 13 52 3 58 -4 3 -5 11 -1 17 13 21
14 49 1 41 -7 -4 -8 -3 -4 5 11 17 15 62 6 56 -5 -3 -10 1 -13 9 -3 8 1 17 10
20 11 5 12 10 4 19 -7 10 -7 17 0 24 8 8 8 13 0 17 -8 5 -8 13 0 28 10 18 8
19 -13 14 l-23 -6 22 11 c21 11 22 13 5 26 -9 8 -12 12 -6 9 7 -3 15 1 18 10
3 9 2 12 -4 9 -6 -4 -10 5 -8 22 1 16 -2 35 -7 42 -5 9 -4 12 2 8 7 -4 10 5 8
26 -1 17 3 35 9 39 7 5 5 8 -6 8 -10 0 -18 5 -18 11 0 5 5 7 10 4 14 -9 12 8
-2 24 -8 9 -8 11 -2 8 13 -8 23 11 17 31 -3 6 -10 9 -16 5 -8 -5 -8 -2 0 8 9
11 9 19 2 26 -8 8 -7 13 2 18 8 5 10 4 5 -3 -4 -7 -3 -12 3 -12 5 0 9 9 8 19
0 11 -4 18 -8 16 -3 -2 -6 35 -6 84 0 48 -3 94 -8 101 -5 9 -4 11 3 6 16 -10
15 7 0 23 -11 12 -10 13 6 7 19 -6 19 -6 3 11 -10 12 -13 23 -7 33 5 8 4 22
-2 33 -7 14 -7 18 1 12 8 -5 10 1 5 21 -6 21 -4 25 7 19 11 -7 12 -6 2 6 -19
24 -24 79 -7 86 12 4 12 8 -3 20 -10 8 -13 12 -6 9 6 -4 14 -2 18 4 3 5 1 10
-4 10 -6 0 -11 7 -11 16 0 9 5 12 13 8 9 -6 9 -4 1 7 -14 18 -25 61 -14 54 4
-3 10 2 14 10 3 8 0 17 -6 21 -7 5 -8 2 -3 -7 5 -8 4 -11 0 -6 -11 9 -14 48
-4 42 4 -3 10 2 13 11 3 8 2 13 -3 10 -5 -3 -11 5 -13 19 -4 19 -2 23 7 15 8
-7 11 -4 10 10 -1 11 -5 23 -10 27 -4 5 -5 2 0 -6 6 -10 4 -12 -4 -7 -8 6 -9
12 -2 20 7 9 7 16 0 23 -7 7 -8 13 0 17 5 4 8 13 4 21 -3 9 0 22 6 29 9 11 9
16 0 22 -8 5 -9 3 -4 -6 6 -9 4 -11 -5 -5 -10 6 -10 10 3 20 14 10 13 12 -5
24 -15 9 -17 15 -8 26 6 8 9 19 6 24 -4 5 -1 13 5 17 7 4 9 3 5 -4 -3 -6 -2
-13 3 -16 14 -9 7 19 -9 40 -9 11 -10 15 -2 10 15 -9 16 6 1 21 -7 7 -8 13 0
17 7 5 7 15 0 32 -8 23 -7 25 8 20 15 -6 14 -4 -2 14 -11 12 -15 21 -10 20 24
-5 27 1 9 16 -10 8 -14 13 -8 10 7 -3 15 1 18 10 3 8 2 13 -3 10 -5 -3 -11 3
-14 14 -3 11 -2 18 3 15 4 -3 10 2 14 10 3 8 0 17 -6 21 -7 5 -8 2 -3 -7 5 -8
4 -11 0 -6 -11 9 -14 48 -4 42 4 -3 10 2 13 11 3 8 2 13 -3 10 -5 -3 -12 1
-15 10 -3 8 -2 13 3 10 15 -10 22 24 9 47 -6 12 -12 31 -13 41 -1 10 -10 25
-21 32 -41 28 -46 35 -34 49 8 10 8 15 -1 21 -8 4 -9 3 -5 -4 4 -7 3 -12 -2
-12 -6 0 -9 11 -8 25 0 14 4 25 8 25 5 0 7 6 5 13 -1 6 3 11 10 10 6 -2 10 5
8 15 -3 16 9 33 30 43 6 2 9 7 8 11 -2 4 4 5 12 2 8 -4 15 -10 15 -15 0 -5 4
-9 10 -9 5 0 6 7 3 17 -4 11 -3 14 5 9 12 -7 48 -17 69 -18 7 -1 9 -6 6 -11
-4 -6 0 -8 10 -4 11 4 14 2 10 -9 -3 -8 1 -22 8 -31 12 -14 12 -16 -1 -9 -8 4
-6 0 4 -8 17 -14 16 -20 -4 -18 -3 0 -6 -8 -6 -18 0 -14 3 -16 13 -8 10 8 12
7 7 -6 -3 -9 -10 -16 -15 -16 -5 0 -8 -3 -8 -7 4 -23 -3 -32 -18 -26 -11 4
-14 3 -9 -5 4 -7 1 -12 -7 -12 -8 0 -21 -8 -28 -17 -10 -11 -10 -14 -1 -9 6 4
12 3 12 -3 0 -5 -6 -12 -12 -14 -10 -4 -9 -8 2 -16 13 -9 12 -11 -4 -11 -20 0
-20 0 0 -16 10 -8 13 -13 7 -9 -9 4 -13 -5 -14 -32 0 -21 -2 -50 -3 -64 -1
-20 2 -25 14 -22 12 4 12 2 -2 -9 -11 -9 -14 -19 -8 -28 6 -9 4 -17 -3 -22 -9
-6 -9 -8 0 -8 6 0 9 -9 5 -22 -4 -16 -2 -19 9 -13 11 7 12 6 3 -6 -6 -8 -14
-23 -18 -33 -5 -16 -4 -17 9 -6 13 11 14 10 9 -4 -3 -9 -10 -16 -15 -16 -4 0
-6 -7 -3 -15 4 -8 11 -12 18 -9 6 3 2 -2 -8 -10 -20 -16 -20 -16 0 -17 15 0
16 -2 4 -7 -15 -7 -19 -46 -7 -58 3 -3 2 -17 -4 -31 -5 -15 -5 -22 0 -18 5 3
12 1 15 -4 4 -5 -1 -11 -11 -13 -15 -3 -15 -4 1 -21 17 -16 17 -17 -1 -17 -15
0 -16 -2 -3 -10 8 -5 11 -10 5 -10 -5 0 -10 -18 -10 -39 0 -22 3 -37 6 -35 4
2 9 -3 12 -11 4 -10 1 -12 -10 -8 -12 5 -13 2 -6 -13 6 -10 8 -25 5 -33 -3 -9
0 -11 9 -7 8 4 6 1 -4 -7 -18 -15 -18 -15 0 -20 16 -4 16 -5 1 -6 -22 -1 -24
-21 -2 -21 8 0 12 -5 9 -10 -4 -6 -10 -8 -14 -6 -4 3 -8 -1 -8 -9 0 -8 7 -15
14 -15 8 0 11 -5 8 -10 -4 -6 -9 -8 -13 -6 -4 2 -7 -20 -7 -50 0 -38 4 -54 13
-54 7 0 10 -5 7 -10 -4 -6 -10 -8 -14 -6 -4 3 -8 -1 -8 -9 0 -8 7 -15 14 -15
8 0 11 -5 8 -10 -4 -6 -11 -8 -16 -5 -5 3 -6 -1 -3 -9 3 -9 11 -16 18 -17 6 0
2 -4 -9 -9 -13 -6 -15 -9 -5 -9 13 -1 13 -2 0 -11 -12 -8 -12 -10 5 -11 l20 0
-20 -9 c-11 -5 -14 -9 -7 -9 6 -1 12 -6 12 -12 0 -5 -5 -7 -11 -3 -8 5 -8 1 0
-14 8 -15 8 -22 -2 -25 -8 -4 -9 -6 0 -6 8 -1 9 -10 3 -30 -7 -25 -6 -29 8
-24 14 5 15 3 5 -8 -17 -17 -17 -43 0 -33 7 5 7 1 -2 -10 -13 -15 -13 -19 0
-27 12 -7 11 -9 -3 -9 -10 0 -16 -7 -15 -19 1 -12 7 -17 17 -14 12 4 12 2 -2
-9 -11 -9 -14 -19 -8 -28 5 -8 6 -18 3 -23 -3 -5 1 -13 8 -18 11 -7 11 -9 -3
-9 -10 0 -16 -7 -15 -19 1 -13 6 -17 17 -13 13 5 13 4 1 -12 -13 -15 -13 -19
0 -27 8 -5 9 -9 3 -9 -19 0 -24 -39 -7 -55 13 -13 12 -15 -8 -15 -22 0 -22 0
-3 -16 10 -8 13 -12 6 -9 -11 6 -12 3 -4 -12 6 -11 7 -25 2 -33 -6 -10 -4 -23
5 -37 9 -14 11 -24 5 -28 -6 -3 -10 -11 -10 -16 0 -6 4 -7 10 -4 6 3 7 -1 4
-9 -3 -9 -10 -13 -15 -10 -5 3 -6 -2 -3 -10 3 -9 11 -13 18 -10 6 3 3 -1 -6
-9 -18 -14 -25 -33 -10 -23 4 2 8 -4 8 -14 0 -10 -4 -16 -9 -13 -4 2 -6 -8 -4
-24 2 -15 0 -36 -5 -47 -7 -12 -7 -16 0 -12 11 7 11 -93 -1 -111 -4 -6 -3 -14
3 -18 15 -9 12 -28 -2 -19 -10 6 -10 4 0 -7 6 -7 12 -19 12 -27 0 -8 -5 -10
-12 -6 -7 4 -4 -2 6 -14 19 -22 19 -22 0 -23 -16 0 -16 -1 4 -9 12 -5 22 -13
23 -17 0 -4 2 -16 4 -25 2 -11 -2 -15 -11 -11 -10 4 -13 -1 -11 -18 2 -14 -3
-29 -12 -36 -10 -7 -11 -12 -4 -13 6 0 15 5 18 10 4 6 11 7 17 4 13 -8 29 16
20 31 -11 16 -9 29 8 43 8 8 9 11 3 7 -8 -4 -13 0 -13 9 0 9 4 16 8 16 5 0 8
14 8 30 0 17 -3 30 -8 30 -5 0 -4 8 1 19 6 10 7 21 3 25 -3 4 1 4 11 0 17 -6
18 -4 21 63 1 12 5 25 10 30 5 5 6 2 1 -6 -6 -10 -4 -12 4 -7 7 5 10 14 7 22
-3 7 -1 16 3 18 5 3 7 18 5 33 -1 16 4 38 12 50 8 13 11 23 7 23 -4 0 2 7 13
15 13 10 15 14 5 15 -9 0 -7 6 8 19 16 14 18 21 9 24 -9 4 -9 6 -1 6 7 1 10
11 7 26 -2 14 0 25 6 25 5 0 10 7 10 16 0 8 4 13 9 10 4 -3 7 6 5 20 -1 14 0
23 3 20 3 -3 12 6 20 20 15 30 16 37 5 30 -5 -3 -9 1 -9 9 0 8 4 12 9 9 4 -3
8 0 8 7 0 6 8 18 18 26 9 7 13 13 7 12 -24 -3 -27 2 -9 17 10 8 13 13 7 9 -20
-10 -15 1 12 31 14 15 24 33 21 41 -3 7 0 15 6 19 7 5 8 2 3 -6 -5 -8 -4 -11
2 -7 6 4 10 20 9 36 -1 17 1 28 5 25 4 -2 14 7 23 21 9 14 13 25 9 25 -5 0 0
5 10 11 14 8 15 14 7 24 -8 10 -8 15 1 21 8 5 9 3 4 -6 -5 -8 -4 -11 3 -7 5 4
8 15 5 26 -3 12 3 24 17 34 15 10 20 22 16 32 -3 9 -2 13 4 10 6 -3 10 -1 10
5 0 6 4 9 8 6 4 -2 9 4 10 15 4 44 6 47 21 41 14 -5 14 -4 1 13 -9 11 -10 16
-2 11 7 -4 12 -1 12 8 0 9 5 16 11 16 5 0 7 5 4 10 -3 6 2 10 12 10 14 0 15 2
4 9 -10 6 -10 10 -1 16 6 4 9 13 6 21 -5 13 6 18 27 15 4 0 6 2 6 6 -4 22 2
43 10 38 5 -3 12 4 16 15 3 11 12 20 18 20 7 0 6 4 -3 10 -13 8 -12 10 3 10
10 0 16 4 12 9 -3 6 4 15 16 22 16 8 18 13 9 19 -9 6 -7 10 8 14 13 5 19 13
15 22 -3 8 -2 14 3 13 21 -4 28 2 14 11 -13 8 -12 10 3 10 10 0 15 5 12 10 -3
6 1 13 9 16 9 3 13 11 9 17 -4 6 0 8 9 5 8 -4 15 0 16 8 1 8 3 20 4 27 1 8 7
14 15 14 7 0 9 -5 5 -12 -4 -6 1 -2 11 9 12 13 14 21 7 26 -7 5 -3 9 10 13 12
3 19 10 15 16 -3 6 1 11 10 11 9 0 13 5 10 11 -4 6 2 17 14 25 12 8 21 21 21
29 0 9 6 12 17 8 11 -4 14 -3 9 5 -4 7 -2 12 3 12 6 0 11 7 11 16 0 8 4 13 9
10 5 -3 14 8 20 25 6 17 15 28 20 25 11 -7 33 18 24 27 -3 4 1 7 10 7 10 0 16
5 15 12 -2 6 7 14 20 17 13 3 24 11 25 16 2 19 35 47 46 40 7 -3 10 -2 9 4 -2
5 6 17 17 26 11 9 14 13 6 9 -10 -5 -12 -3 -5 7 16 26 11 60 -10 75 -12 8 -20
17 -18 19 6 13 1 25 -10 23 -7 -2 -13 4 -13 12 0 8 -7 21 -15 28 -13 12 -13
13 0 6 8 -4 -3 9 -24 29 -22 20 -35 37 -30 37 6 0 11 7 11 15 0 8 -5 11 -10 8
-6 -4 -8 0 -4 10 3 9 3 16 -1 16 -19 -3 -23 2 -13 15 9 10 6 17 -13 31 -16 12
-22 24 -18 38 4 15 2 18 -9 12 -12 -8 -12 -6 0 9 12 14 12 17 0 14 -8 -2 -15
7 -17 20 -2 12 -7 20 -12 17 -4 -3 -6 4 -3 14 3 12 -2 23 -15 30 -13 7 -18 19
-17 36 2 14 -2 28 -7 32 -7 4 -8 1 -3 -8 6 -11 5 -12 -5 -2 -11 10 -11 15 1
29 9 12 10 15 2 10 -9 -5 -13 -1 -13 11 -1 23 -23 53 -41 53 -11 0 -11 2 1 10
13 8 12 10 -3 10 -15 0 -16 3 -7 20 7 13 7 20 1 20 -6 0 -8 7 -5 15 4 8 11 12
17 8 6 -3 7 -1 3 5 -4 7 -15 12 -24 12 -15 0 -15 2 -2 10 10 6 11 10 3 10 -7
0 -13 5 -13 11 0 5 4 7 10 4 6 -3 7 1 4 9 -3 9 -11 13 -16 10 -6 -4 -5 3 1 15
9 16 9 21 -1 21 -10 0 -10 2 1 9 7 5 10 14 7 20 -6 10 6 15 27 12 4 0 7 4 7 9
0 16 80 91 90 85 5 -3 12 0 16 6 5 8 3 9 -6 4 -9 -5 -11 -4 -6 3 4 7 13 12 20
12 7 0 25 11 40 25 28 26 53 34 40 13 -5 -7 -3 -8 5 -4 7 5 10 10 7 14 -3 3 2
11 12 19 11 10 12 12 2 8 -8 -4 -4 3 10 14 14 12 33 19 43 17 14 -3 17 0 13
11 -6 13 -4 14 9 3 9 -7 15 -9 14 -4 -4 24 2 36 17 30 8 -3 12 -2 9 4 -3 6 -1
10 4 10 6 0 11 7 11 16 0 8 5 12 10 9 6 -4 8 -11 5 -16 -4 -5 -4 -9 -1 -9 3 0
10 10 17 21 9 17 8 20 -2 14 -7 -5 -10 -4 -5 3 4 6 14 8 23 5 12 -5 14 -3 8 7
-5 9 -4 11 3 6 13 -8 39 3 44 19 2 6 9 9 16 9 11 -2 16 9 14 28 -1 3 5 9 14
12 10 4 13 2 8 -7 -4 -6 4 -2 18 11 13 12 30 22 37 22 8 0 11 6 7 17 -4 10 -4
14 0 10 4 -4 15 0 25 9 15 14 34 21 63 23 5 1 7 4 3 7 -7 8 42 54 57 54 6 0
17 9 24 20 7 12 18 18 24 14 8 -5 9 -1 4 12 -5 15 -4 16 5 7 13 -13 42 -6 33
8 -3 5 2 9 11 9 9 0 14 4 11 9 -3 5 2 15 11 22 14 12 16 12 9 -1 -4 -8 -1 -7
8 4 8 10 21 16 29 13 16 -6 47 26 47 49 0 13 3 14 14 5 11 -9 16 -9 22 0 5 8
3 9 -6 4 -9 -5 -11 -4 -6 3 4 7 13 12 21 12 7 0 16 7 19 16 3 8 10 12 16 9 5
-3 10 1 10 9 0 10 6 13 17 9 11 -4 14 -3 9 5 -4 7 -1 12 8 12 8 0 17 -6 20
-12 3 -7 4 -4 3 7 -1 12 3 19 10 18 7 -2 12 0 12 5 -3 19 2 33 10 28 5 -4 11
-2 13 3 1 5 12 11 23 13 29 5 46 21 31 30 -10 7 -2 10 20 7 4 0 10 5 15 12 6
10 11 10 23 -1 14 -11 16 -10 10 4 -3 9 -1 16 6 16 6 0 9 4 6 8 -3 5 4 16 14
25 12 10 22 12 26 6 7 -13 34 8 34 27 0 8 6 11 15 7 9 -3 15 -2 14 3 -4 23 2
33 18 27 10 -4 14 -2 9 5 -4 7 0 10 13 7 12 -2 21 3 24 16 3 10 13 19 22 19 9
0 14 4 11 9 -7 11 22 23 35 16 5 -4 6 2 2 11 -4 11 -3 15 5 10 6 -3 13 3 17
14 4 11 10 18 15 15 10 -6 62 20 54 28 -3 3 5 3 18 0 18 -4 20 -3 8 6 -10 7
-11 11 -2 11 6 0 12 7 12 15 0 18 16 20 23 3 4 -10 6 -10 6 0 1 7 6 10 13 6 8
-5 9 -2 5 10 -4 10 -3 15 3 11 6 -3 10 -2 10 4 0 6 8 7 17 4 12 -5 15 -2 10 9
-8 22 3 30 20 16 11 -8 12 -7 7 6 -5 12 -2 15 12 9 13 -5 16 -3 11 10 -5 13
-1 17 18 17 14 0 24 5 22 12 -1 7 4 12 11 13 7 0 17 6 21 14 5 7 13 11 19 7 6
-3 14 3 17 15 4 12 12 18 20 15 9 -3 12 0 8 10 -3 9 1 14 12 14 9 0 13 5 9 11
-4 8 1 9 16 4 19 -6 22 -4 17 9 -4 10 -3 15 3 11 6 -3 10 -2 10 4 0 5 9 13 20
16 11 4 18 10 15 14 -2 5 5 8 18 7 16 -1 21 4 19 17 -2 9 2 17 8 17 5 0 10 7
10 15 0 9 7 18 15 21 8 4 12 10 9 15 -3 5 0 9 6 9 6 0 8 5 4 12 -5 7 -2 9 9 5
9 -3 18 0 21 9 3 9 10 13 14 10 5 -3 8 10 7 29 -2 25 1 32 11 28 10 -4 12 0 8
11 -4 9 0 18 9 22 9 3 13 12 10 20 -3 8 0 14 6 14 8 0 11 421 11 1540 0 1225
-3 1540 -12 1540 -9 0 -8 3 2 10 13 8 13 11 1 22 -10 10 -12 10 -7 1 4 -7 5
-13 2 -13 -3 0 -10 10 -17 21 -9 17 -8 20 3 13 11 -6 11 -5 0 8 -10 13 -10 17
0 21 8 3 6 6 -5 6 -10 1 -15 6 -12 11 3 6 2 10 -4 10 -6 0 -7 7 -4 17 5 12 3
14 -7 8 -8 -5 -11 -3 -8 6 3 8 -4 22 -15 32 -14 12 -16 17 -6 17 8 0 -1 9 -18
20 -18 11 -33 23 -33 26 0 4 7 1 15 -6 13 -11 14 -10 9 4 -6 15 -17 20 -36 17
-4 0 -5 6 -2 14 5 11 2 13 -12 8 -12 -4 -15 -3 -10 5 6 11 -12 17 -37 13 -5
-1 -6 3 -2 9 3 5 1 19 -6 31 -9 17 -13 19 -20 8 -6 -10 -10 -8 -18 11 -5 14
-10 21 -10 15 -1 -5 -11 4 -22 20 -12 17 -19 22 -15 13 3 -10 1 -18 -4 -18 -6
0 -10 8 -11 18 0 10 -3 12 -6 5 -3 -9 -10 -10 -23 -3 -13 7 -20 6 -23 -3 -4
-9 -6 -9 -6 1 -1 7 -5 10 -11 7 -5 -3 -10 1 -10 10 0 9 -4 13 -10 10 -5 -3
-10 -1 -10 5 0 6 -4 8 -10 5 -6 -3 -10 -1 -10 5 0 6 -4 8 -10 5 -5 -3 -7 0 -4
8 4 12 -14 15 -111 15 -82 0 -115 -4 -112 -12 3 -6 -1 -17 -9 -23 -10 -10 -14
-10 -17 0 -3 7 -9 1 -15 -13 -6 -14 -11 -18 -12 -10 0 12 -3 11 -11 -3 -8 -13
-14 -15 -29 -7 -13 7 -21 7 -26 -2 -5 -7 -3 -8 6 -3 9 5 11 4 6 -4 -6 -9 -11
-9 -24 1 -12 10 -14 10 -8 1 7 -12 -5 -18 -27 -14 -5 1 -6 -3 -2 -9 3 -6 11
-7 17 -4 7 5 8 2 4 -5 -5 -7 -14 -10 -21 -7 -7 2 -16 -2 -19 -11 -5 -11 -10
-13 -20 -4 -7 6 -16 7 -20 3 -4 -4 -13 -7 -19 -7 -7 0 -11 -10 -9 -23 2 -12
-2 -22 -8 -22 -6 0 -8 5 -4 12 4 7 3 8 -4 4 -7 -4 -12 -14 -12 -22 0 -8 -5
-12 -10 -9 -6 3 -13 -1 -16 -9 -3 -9 -10 -13 -15 -10 -5 3 -9 0 -9 -6 0 -6 -5
-8 -12 -4 -7 5 -8 3 -4 -5 5 -8 0 -14 -13 -18 -12 -3 -21 -10 -21 -15 0 -6 -7
-8 -15 -4 -8 3 -20 -3 -28 -14 -8 -11 -17 -17 -20 -14 -3 4 -12 -5 -18 -19 -7
-15 -16 -24 -22 -20 -6 3 -16 -2 -23 -11 -7 -10 -16 -18 -21 -19 -4 -1 -7 -5
-6 -9 3 -8 -12 -12 -29 -9 -5 0 -8 -6 -8 -15 0 -14 -2 -15 -17 -3 -15 12 -16
12 -10 -3 5 -13 0 -19 -18 -24 -14 -3 -23 -10 -20 -14 5 -7 -10 -17 -28 -18
-5 0 -17 -10 -27 -22 -11 -12 -24 -19 -29 -15 -6 3 -16 -5 -22 -19 -7 -14 -16
-23 -20 -20 -5 3 -9 0 -9 -6 0 -6 -5 -8 -12 -4 -6 4 -9 3 -5 -2 3 -5 -2 -18
-10 -29 -12 -16 -14 -16 -10 -3 3 10 2 20 -3 23 -6 4 -10 -1 -10 -10 0 -12 -5
-15 -16 -11 -15 6 -15 4 -3 -11 9 -11 10 -14 1 -9 -7 4 -15 1 -18 -8 -3 -9
-10 -14 -14 -11 -4 3 -10 -5 -13 -16 -3 -12 -10 -18 -16 -14 -6 3 -9 12 -5 18
3 7 -2 3 -10 -7 -12 -15 -16 -16 -17 -5 -1 8 -4 3 -8 -11 -4 -14 -14 -24 -21
-22 -11 2 -10 0 1 -14 10 -13 10 -16 1 -10 -7 4 -19 2 -27 -4 -11 -9 -15 -9
-15 -1 0 8 -4 8 -14 -1 -8 -7 -12 -16 -9 -20 2 -5 -1 -8 -7 -8 -6 0 -8 -5 -4
-12 5 -8 2 -9 -10 -5 -13 5 -17 3 -13 -6 4 -10 -3 -13 -24 -12 -15 1 -26 -2
-23 -6 2 -4 0 -10 -6 -14 -6 -4 -8 -11 -5 -16 4 -5 -2 -10 -12 -11 -10 0 -25
-2 -33 -2 -8 -1 -14 -9 -14 -18 1 -11 -4 -14 -14 -11 -9 4 -13 2 -9 -4 4 -6
-19 -22 -51 -38 -31 -15 -68 -40 -81 -54 -14 -14 -27 -25 -30 -24 -3 0 -5 -3
-4 -8 2 -4 -5 -5 -14 -2 -11 4 -14 3 -9 -5 4 -7 2 -12 -4 -12 -6 0 -8 -4 -5
-10 3 -5 -1 -10 -9 -10 -22 0 -66 -22 -61 -30 3 -4 -5 -16 -17 -26 -14 -12
-18 -14 -13 -4 7 12 6 13 -7 3 -8 -7 -19 -9 -23 -5 -5 4 -4 1 0 -7 6 -11 4
-13 -9 -8 -10 4 -15 3 -11 -3 8 -13 -33 -29 -57 -22 -10 2 -15 9 -11 16 4 6
-2 4 -12 -4 -11 -9 -16 -10 -11 -2 4 6 3 12 -3 12 -6 0 -7 7 -4 17 4 11 3 14
-5 9 -16 -10 -15 6 1 23 10 11 9 13 -3 7 -12 -6 -12 -5 1 6 9 7 14 19 12 26
-3 6 1 12 7 12 9 0 9 5 -1 17 -10 11 -10 14 -1 9 7 -4 12 -2 12 4 0 6 4 9 8 6
5 -3 9 1 9 9 0 8 -4 12 -9 9 -5 -4 -5 2 1 12 5 11 12 27 15 37 3 10 10 15 16
12 15 -9 12 2 -6 19 -13 14 -14 16 0 16 8 0 18 5 22 12 5 7 3 8 -7 3 -12 -8
-12 -6 -1 8 8 9 11 21 7 26 -4 7 1 8 12 4 16 -6 17 -5 3 12 -8 10 -10 16 -4
12 7 -4 15 0 18 9 3 8 2 12 -4 9 -5 -3 -7 0 -4 8 3 8 15 20 27 26 22 11 22 11
-1 5 l-24 -6 23 23 c16 16 19 24 10 27 -8 3 -5 9 10 20 20 14 20 16 5 27 -15
11 -15 13 -1 19 11 4 14 2 9 -6 -4 -6 -3 -8 3 -5 6 4 9 21 8 37 -2 23 1 30 11
26 8 -3 13 -2 13 2 -4 25 2 42 14 36 10 -6 10 -4 0 7 -14 14 -18 33 -5 26 11
-7 27 15 29 40 3 31 -36 27 -43 -4 -4 -13 -10 -21 -14 -18 -5 3 -12 -4 -15
-16 -4 -11 -9 -18 -12 -15 -4 3 -12 -2 -20 -12 -9 -10 -12 -11 -7 -2 4 8 -6 2
-23 -15 -16 -16 -28 -33 -26 -37 2 -5 -3 -8 -11 -8 -8 0 -18 -9 -21 -20 -4
-11 -11 -18 -16 -15 -5 4 -9 -1 -9 -9 0 -9 -6 -15 -12 -14 -7 2 -12 -5 -12
-14 1 -9 -4 -14 -10 -12 -13 5 -58 -41 -49 -50 4 -3 1 -6 -5 -6 -7 0 -22 -11
-34 -25 -11 -13 -26 -22 -31 -18 -6 3 -7 1 -3 -5 3 -6 -2 -16 -13 -21 -11 -6
-23 -20 -26 -31 -3 -11 -11 -20 -16 -20 -6 0 -7 5 -3 12 5 7 3 8 -5 4 -7 -5
-10 -10 -7 -14 3 -3 -5 -15 -17 -26 -13 -12 -22 -27 -20 -33 3 -7 -4 -9 -16
-6 -13 3 -21 1 -21 -7 0 -9 -8 -7 -26 5 -18 11 -24 12 -18 4 6 -11 4 -11 -10
0 -15 13 -19 13 -27 0 -7 -11 -9 -9 -9 9 0 12 -5 22 -11 22 -5 0 -7 -4 -4 -10
3 -6 -1 -7 -9 -4 -9 3 -16 10 -16 15 0 4 -7 6 -15 3 -8 -4 -17 1 -21 9 -3 8
-13 13 -23 10 -11 -3 -21 2 -24 12 -5 12 -11 13 -25 6 -14 -7 -19 -6 -19 4 0
8 5 12 11 9 6 -3 3 1 -6 9 -18 14 -25 33 -10 23 5 -3 9 1 9 9 0 7 -8 12 -18
10 -15 -3 -17 0 -9 20 5 12 6 26 2 29 -9 10 -11 37 -2 31 5 -3 8 4 7 15 -1 11
-6 20 -11 20 -5 0 -6 3 -3 7 4 3 -1 12 -11 20 -9 8 -12 12 -6 9 6 -3 11 1 11
9 0 8 -3 14 -6 13 -18 -2 -21 4 -11 22 9 16 8 19 -6 13 -13 -5 -15 -3 -8 8 14
23 11 73 -5 87 -13 11 -13 12 -1 6 12 -6 13 -5 4 7 -5 8 -9 24 -8 37 0 12 -3
22 -9 22 -5 0 -3 8 4 17 12 15 12 16 -1 8 -12 -7 -13 -6 -3 6 9 11 8 18 -1 31
-7 10 -16 15 -19 12 -3 -4 -5 2 -5 12 1 11 -2 32 -6 47 -4 18 -3 26 3 23 6 -4
7 4 2 21 -4 16 -7 36 -5 46 1 12 -2 17 -10 14 -7 -3 -20 3 -29 13 -14 17 -14
20 1 32 11 9 14 10 8 1 -4 -7 -3 -21 3 -30 8 -15 10 -12 9 15 -1 19 -6 32 -14
32 -20 0 -28 -20 -25 -63 1 -21 -2 -37 -6 -34 -4 3 -9 -6 -10 -20 -1 -19 1
-22 8 -12 6 10 8 8 6 -8 0 -12 -5 -19 -9 -17 -7 5 -12 -10 -9 -28 0 -5 -4 -8
-9 -8 -7 0 -7 -6 0 -19 8 -16 6 -23 -12 -35 -13 -9 -16 -16 -9 -16 11 0 11 -3
1 -15 -12 -14 -7 -19 13 -16 5 1 6 -3 2 -9 -3 -6 -11 -8 -16 -5 -5 4 -9 2 -9
-4 0 -5 6 -12 13 -14 6 -3 3 -6 -8 -6 -17 -1 -17 -3 -5 -11 9 -6 11 -10 3 -10
-7 0 -10 -7 -7 -15 4 -9 0 -15 -7 -15 -9 0 -10 -3 -4 -8 6 -4 11 -14 13 -22 2
-8 0 -12 -4 -8 -13 14 -33 -25 -23 -44 5 -10 6 -18 1 -18 -5 0 -7 -15 -5 -32
4 -27 2 -30 -7 -18 -10 12 -11 11 -7 -7 3 -13 1 -23 -4 -23 -5 0 -9 -5 -9 -11
0 -5 6 -7 13 -3 8 5 8 2 -2 -9 -7 -9 -10 -17 -7 -17 4 0 0 -7 -9 -16 -12 -12
-13 -19 -5 -24 8 -5 9 -16 4 -31 -4 -13 -7 -27 -6 -31 1 -5 -3 -8 -8 -8 -6 0
-15 -12 -20 -26 -6 -14 -14 -22 -20 -19 -5 3 -10 1 -10 -4 0 -6 -5 -11 -11
-11 -5 0 -7 6 -4 13 4 6 -2 2 -14 -11 -12 -14 -22 -18 -26 -12 -5 8 -11 8 -19
1 -7 -6 -17 -7 -21 -3 -5 4 -5 1 -1 -5 7 -13 -5 -17 -33 -14 -7 2 -10 -2 -6
-9 4 -7 -1 -6 -14 2 -18 11 -23 11 -30 0 -7 -11 -9 -11 -14 2 -4 10 -13 13
-23 9 -12 -4 -15 -3 -10 5 4 8 2 10 -8 6 -9 -3 -17 3 -21 16 -4 12 -9 19 -12
16 -7 -7 -83 72 -83 86 0 5 -4 7 -9 4 -5 -3 -19 7 -32 23 -13 16 -28 27 -34
23 -5 -3 -4 2 3 11 12 14 11 16 -7 12 -12 -2 -19 -1 -17 4 3 4 -4 13 -14 21
-10 8 -17 17 -14 22 3 4 -5 8 -17 8 -19 0 -20 2 -8 18 7 9 10 14 5 10 -12 -10
-48 11 -41 23 4 5 -4 9 -16 9 -12 0 -20 3 -17 6 4 3 -9 21 -28 41 -19 19 -34
39 -34 44 0 5 -6 9 -14 9 -8 0 -17 7 -20 16 -5 13 -9 14 -21 4 -14 -11 -14
-15 2 -33 10 -11 13 -17 6 -14 -6 4 -14 3 -18 -3 -3 -5 1 -10 9 -10 9 0 17 -8
18 -17 0 -10 2 -23 2 -29 1 -6 8 -20 16 -30 9 -10 10 -15 3 -10 -7 4 -13 2
-13 -3 0 -6 6 -11 14 -11 8 0 17 -7 20 -16 4 -10 2 -13 -7 -9 -6 4 -3 -1 7 -9
15 -12 16 -16 5 -16 -11 0 -11 -2 -1 -9 7 -4 14 -18 15 -29 1 -12 4 -22 7 -22
3 0 7 -10 7 -22 1 -13 7 -24 13 -26 5 -2 10 -10 10 -18 0 -10 -5 -12 -12 -8
-7 5 -1 -7 15 -25 15 -18 25 -37 21 -42 -3 -5 0 -9 7 -9 8 0 8 -4 1 -13 -8
-10 -6 -16 9 -25 16 -10 18 -16 8 -33 -8 -15 -8 -19 0 -15 7 5 11 -1 11 -14 0
-14 4 -19 13 -14 9 6 9 4 -1 -8 -11 -14 -9 -19 10 -32 15 -11 17 -16 8 -16 -9
0 -11 -3 -5 -8 6 -4 11 -14 11 -23 1 -12 -5 -16 -22 -14 -13 1 -22 -1 -19 -5
2 -4 -9 -7 -25 -7 -18 0 -27 4 -23 11 4 6 -1 5 -10 -3 -11 -8 -17 -9 -17 -3 0
7 -7 9 -17 5 -11 -4 -14 -3 -9 5 4 7 2 12 -4 12 -6 0 -8 5 -5 10 3 6 -1 10 -9
10 -8 0 -21 9 -29 20 -8 11 -17 17 -22 12 -5 -4 -5 -2 -2 4 4 7 0 17 -8 24 -8
7 -12 17 -8 24 4 7 2 7 -7 -1 -10 -9 -20 -8 -46 4 -18 9 -32 19 -30 22 1 3 -5
14 -16 24 -11 11 -18 13 -18 5 0 -7 -21 10 -47 37 -25 28 -42 44 -38 36 5 -9
3 -12 -6 -9 -8 3 -14 10 -14 15 0 6 -4 15 -9 20 -5 5 -6 3 -2 -4 5 -8 1 -13
-10 -13 -10 0 -14 3 -11 6 10 10 -35 45 -50 40 -7 -3 -12 0 -10 7 1 7 -4 11
-11 9 -8 -1 -11 2 -7 8 3 5 1 10 -4 10 -6 0 -11 5 -11 11 0 5 5 7 12 3 6 -4 8
-3 5 4 -4 5 -16 8 -27 5 -13 -4 -27 2 -39 16 -10 11 -21 18 -25 14 -3 -3 -6
-1 -6 6 0 7 -4 9 -10 6 -5 -3 -10 1 -10 9 0 8 -10 20 -21 27 -17 9 -20 8 -14
-3 3 -7 0 -5 -8 4 -8 10 -18 14 -22 10 -5 -4 -5 1 -2 11 4 11 3 16 -3 12 -6
-3 -10 -1 -10 5 0 6 -4 9 -9 6 -5 -3 -11 1 -15 9 -3 8 -11 15 -18 15 -15 0
-49 35 -42 44 2 3 -2 2 -8 -4 -9 -8 -18 -4 -31 12 -10 13 -16 16 -12 8 4 -8
-3 -4 -14 9 -12 12 -18 27 -15 32 3 5 -9 7 -26 5 -26 -3 -29 -1 -18 12 11 13
10 15 -9 10 -16 -4 -23 -2 -23 9 0 8 -4 11 -10 8 -5 -3 -10 1 -10 9 0 9 -9 16
-21 16 -11 0 -17 5 -14 10 3 6 -3 10 -14 10 -11 0 -23 5 -27 12 -4 7 -3 8 4 4
7 -4 12 -3 12 2 0 4 -20 19 -45 31 -26 13 -57 33 -69 46 -13 13 -26 21 -30 18
-3 -3 -12 -1 -19 5 -8 7 -18 8 -22 4 -5 -4 -5 -1 -1 6 4 6 2 12 -3 12 -6 0
-11 7 -11 15 0 8 -11 17 -25 21 -14 3 -22 11 -18 17 4 6 0 8 -9 4 -9 -3 -24 1
-35 9 -17 13 -17 14 2 8 l20 -6 -20 13 c-11 7 -23 17 -27 23 -6 8 -8 8 -8 -1
0 -6 -9 -9 -20 -6 -10 3 -19 8 -18 12 2 16 -3 31 -9 30 -20 -3 -34 2 -29 10 3
5 -1 11 -9 15 -8 3 -15 1 -15 -4 0 -6 -5 -10 -11 -10 -5 0 -8 4 -5 9 4 5 -3 7
-14 4 -12 -3 -20 0 -20 7 0 9 -4 9 -17 -1 -11 -10 -14 -10 -9 -1 4 7 2 12 -4
12 -7 0 -9 7 -6 16 3 8 2 13 -3 10 -5 -3 -11 0 -14 8 -5 11 -31 14 -127 13
-103 -1 -119 -3 -104 -14z m119 -283 c-4 -6 7 -10 25 -10 22 0 29 -4 24 -12
-6 -10 -5 -10 7 -1 17 13 59 14 59 0 0 -4 5 -5 10 -2 6 3 10 -1 10 -10 0 -10
5 -13 12 -9 8 5 9 2 5 -10 -4 -9 -3 -14 2 -11 5 3 12 1 16 -5 4 -6 11 -8 16
-5 5 4 9 1 9 -4 0 -6 7 -11 16 -11 8 0 12 -4 9 -10 -3 -5 1 -10 10 -10 8 0 18
-7 21 -15 4 -8 10 -12 15 -9 5 3 9 0 9 -6 0 -6 5 -8 12 -4 7 5 9 2 5 -9 -4
-11 -2 -14 7 -11 8 3 17 0 21 -5 3 -6 11 -9 16 -6 5 4 6 -2 2 -12 -3 -10 -3
-15 2 -11 4 4 14 0 22 -10 8 -9 12 -11 8 -5 -4 9 -1 11 9 7 9 -3 16 -13 16
-21 0 -9 6 -13 15 -9 8 3 14 0 12 -7 -1 -7 4 -11 12 -9 8 2 11 -3 8 -11 -4
-11 0 -13 14 -10 11 3 19 0 19 -7 0 -7 7 -10 14 -7 10 4 13 1 9 -9 -3 -9 0
-14 8 -12 8 2 13 -4 13 -13 -1 -11 5 -15 17 -12 12 3 19 0 19 -8 0 -11 2 -11
10 1 7 11 10 11 10 2 0 -8 5 -10 13 -6 9 6 9 4 -1 -8 -10 -13 -10 -18 -1 -24
8 -5 10 -3 5 7 -4 8 -1 6 7 -3 8 -10 19 -18 26 -18 6 0 11 -8 12 -17 0 -15 2
-15 9 2 7 17 9 17 9 3 1 -10 4 -18 9 -18 4 0 16 -12 26 -27 9 -16 15 -20 12
-10 -5 15 -3 16 15 7 11 -6 22 -17 25 -25 3 -8 12 -11 20 -8 10 3 12 0 8 -10
-3 -8 0 -18 7 -23 8 -5 10 -3 4 5 -10 18 45 -18 69 -44 10 -11 23 -19 28 -17
6 2 8 -4 5 -11 -4 -10 0 -13 12 -10 13 3 20 -2 24 -17 4 -16 11 -21 23 -16 13
5 14 3 6 -6 -8 -10 -5 -13 13 -14 13 -1 29 -7 37 -13 7 -6 26 -23 41 -36 16
-14 32 -23 37 -20 5 3 11 -4 15 -15 4 -11 15 -20 26 -20 13 0 18 -4 13 -12 -5
-7 0 -9 14 -6 15 4 19 2 15 -9 -3 -7 -2 -13 3 -12 5 1 16 1 24 0 13 -1 13 -2
0 -11 -12 -8 -12 -10 5 -10 23 0 88 -54 78 -64 -4 -4 1 -4 11 0 15 6 17 4 11
-6 -6 -10 -4 -12 8 -7 10 3 17 2 17 -4 0 -5 8 -13 18 -16 24 -10 42 -29 34
-38 -4 -4 -2 -6 3 -5 20 4 36 0 31 -8 -3 -5 1 -9 9 -10 8 -1 22 -3 30 -4 8 -1
12 -5 9 -10 -3 -4 0 -8 6 -8 6 0 8 -4 5 -10 -3 -5 3 -10 14 -10 11 0 26 -9 34
-21 11 -15 16 -17 21 -7 3 7 4 3 2 -10 -2 -12 0 -20 4 -17 11 7 27 -22 34 -58
3 -18 -1 -30 -12 -37 -15 -8 -15 -9 3 -10 15 0 16 -3 7 -12 -7 -7 -12 -17 -12
-22 0 -6 5 -4 10 4 7 11 8 8 6 -13 -1 -15 -6 -30 -9 -34 -4 -3 -2 -12 4 -19 7
-9 7 -19 0 -33 -14 -25 -14 -34 0 -25 6 3 3 -6 -7 -22 -16 -24 -16 -27 -2 -16
13 11 16 11 14 0 -1 -7 -5 -19 -9 -25 -5 -7 -4 -13 1 -13 10 0 9 -30 -1 -47
-4 -6 -3 -14 3 -18 13 -8 13 -25 -1 -25 -5 0 -7 5 -3 12 4 7 3 8 -5 4 -9 -6
-9 -11 0 -23 16 -19 16 -62 -1 -93 -12 -22 -12 -24 3 -12 13 11 15 11 13 0 -1
-7 -5 -19 -9 -25 -5 -7 -4 -13 1 -13 10 0 9 -30 -1 -47 -4 -6 -3 -14 2 -17 10
-7 9 -66 -3 -84 -4 -6 -3 -12 2 -12 10 0 9 -30 -1 -47 -4 -6 -3 -14 2 -17 10
-7 9 -66 -3 -84 -4 -6 -3 -12 2 -12 10 0 9 -30 -1 -47 -4 -6 -3 -14 3 -18 5
-3 10 -12 10 -18 0 -7 -4 -6 -10 3 -8 13 -10 13 -10 -2 0 -9 4 -19 10 -23 6
-4 6 -15 0 -30 -5 -14 -6 -25 -1 -25 9 0 8 -30 -2 -47 -4 -6 -3 -14 3 -18 13
-8 13 -25 -1 -25 -5 0 -7 5 -3 12 5 7 3 8 -5 3 -10 -6 -10 -11 2 -23 11 -11
13 -21 6 -38 -4 -13 -5 -24 0 -24 9 0 8 -30 -2 -47 -4 -6 -3 -14 2 -17 10 -7
9 -66 -3 -84 -4 -6 -3 -12 2 -12 10 0 9 -30 -1 -47 -4 -6 -3 -14 3 -18 5 -3
10 -12 10 -18 0 -7 -4 -6 -10 3 -8 13 -10 13 -10 -2 0 -9 4 -19 10 -23 6 -4 6
-15 0 -30 -5 -14 -6 -25 -1 -25 9 0 8 -30 -2 -47 -4 -6 -3 -14 2 -17 10 -7 9
-66 -3 -84 -4 -6 -3 -12 2 -12 10 0 9 -30 -1 -47 -4 -6 -3 -14 1 -17 13 -8 7
-98 -8 -126 -12 -22 -12 -24 3 -12 13 11 15 11 13 0 -1 -7 -5 -19 -9 -25 -5
-7 -4 -13 1 -13 10 0 9 -30 -1 -47 -4 -6 -3 -14 3 -18 13 -8 13 -25 -1 -25 -5
0 -7 5 -3 12 4 7 3 8 -5 4 -9 -6 -9 -11 0 -23 16 -19 16 -62 -1 -93 -12 -23
-12 -24 4 -11 15 12 17 12 14 0 -2 -8 -7 -17 -13 -21 -6 -5 -4 -8 4 -8 11 0 9
-4 -5 -15 -13 -10 -14 -13 -3 -10 13 5 16 -1 15 -27 -1 -18 -5 -38 -9 -45 -4
-6 -3 -14 2 -17 12 -8 7 -56 -9 -86 -12 -22 -12 -24 3 -12 13 11 15 11 13 0
-1 -7 -5 -19 -9 -25 -5 -7 -4 -13 1 -13 10 0 9 -30 -1 -47 -4 -6 -3 -14 3 -18
5 -3 10 -12 10 -18 0 -7 -4 -6 -10 3 -8 13 -10 13 -10 -2 0 -9 3 -19 8 -21 11
-8 7 -59 -8 -87 -12 -22 -11 -24 2 -13 12 10 15 10 15 -5 0 -9 -7 -25 -15 -35
-13 -15 -14 -17 -1 -12 10 4 15 -2 16 -17 2 -18 0 -20 -7 -8 -8 13 -10 13 -10
-2 0 -9 5 -20 10 -23 8 -5 8 -11 0 -20 -8 -9 -8 -15 0 -20 5 -3 10 -12 10 -18
0 -7 -4 -6 -10 3 -6 10 -9 6 -8 -18 1 -17 5 -29 11 -25 5 3 1 -7 -9 -23 -16
-24 -16 -27 -2 -16 13 11 16 11 14 0 -1 -7 -5 -19 -9 -25 -5 -8 -3 -13 3 -13
6 0 8 -5 5 -10 -4 -6 -12 -8 -18 -4 -7 3 -4 -1 6 -9 13 -11 15 -17 7 -22 -9
-5 -9 -10 -1 -18 14 -14 14 -27 0 -27 -5 0 -7 5 -3 12 4 7 3 8 -5 4 -8 -6 -9
-12 -2 -20 6 -7 8 -16 4 -19 -3 -4 -2 -7 3 -7 14 0 10 -40 -6 -70 -12 -22 -12
-24 3 -12 13 11 15 11 13 0 -1 -7 -5 -19 -9 -25 -5 -7 -4 -13 1 -13 5 0 8 -10
6 -22 -1 -13 -3 -23 -4 -23 -1 0 -3 -19 -6 -42 -2 -24 0 -43 4 -43 5 0 9 -7 9
-15 0 -8 -4 -12 -9 -9 -4 3 -8 0 -8 -5 0 -6 6 -11 13 -11 8 0 7 -4 -3 -10 -8
-5 -10 -10 -4 -10 16 0 6 -100 -11 -112 -6 -5 -3 -8 6 -8 9 0 16 -7 16 -15 0
-8 -4 -12 -8 -9 -4 2 -10 0 -14 -5 -3 -6 -20 -4 -41 5 -20 8 -33 10 -29 5 3
-7 0 -8 -9 -5 -9 3 -16 10 -16 16 0 5 -4 6 -10 3 -6 -3 -7 1 -4 9 4 11 0 16
-10 16 -9 0 -16 3 -16 8 0 4 -14 13 -30 20 -17 8 -28 18 -24 23 3 5 -2 9 -10
9 -9 0 -16 6 -16 13 0 8 -4 7 -10 -3 -8 -13 -10 -12 -10 3 0 10 -4 15 -10 12
-5 -3 -10 -1 -10 4 0 6 -10 11 -21 11 -19 0 -20 2 -8 17 8 9 9 14 3 10 -6 -3
-16 3 -24 13 -8 10 -17 17 -22 14 -4 -3 -8 1 -8 8 0 9 -3 9 -10 -2 -8 -12 -10
-12 -11 5 0 11 -3 14 -6 8 -3 -10 -8 -10 -19 1 -8 8 -14 19 -14 23 0 5 -19 18
-42 28 -24 10 -37 20 -30 23 17 5 -16 31 -41 32 -12 0 -16 4 -11 13 6 9 4 9
-8 -1 -13 -10 -17 -10 -22 3 -3 9 -2 13 4 10 6 -3 10 -4 10 0 0 3 -12 10 -26
15 -14 6 -23 14 -19 19 3 6 -6 8 -21 5 -21 -4 -25 -2 -20 11 3 9 2 14 -2 12
-8 -6 -33 19 -26 26 3 2 -2 7 -11 11 -11 4 -14 2 -10 -7 4 -6 -1 -3 -10 8 -9
11 -19 20 -23 20 -4 0 -6 3 -5 7 2 4 -4 5 -12 2 -9 -4 -15 0 -15 9 0 8 -8 21
-17 28 -16 13 -17 12 -4 -4 12 -15 12 -17 -3 -11 -9 3 -16 13 -16 21 0 8 -4
12 -9 9 -13 -8 -42 4 -35 15 3 5 0 9 -6 9 -6 0 -9 4 -5 9 3 5 0 13 -6 17 -8 4
-9 3 -5 -4 14 -23 -14 -12 -44 16 -16 16 -26 33 -22 37 4 5 -1 5 -10 2 -10 -4
-18 -2 -18 4 0 6 -4 7 -10 4 -5 -3 -10 -1 -10 6 0 7 -3 10 -6 6 -7 -7 -34 17
-34 31 0 5 -10 9 -22 8 -11 0 -23 6 -25 14 -4 13 -3 13 6 0 7 -9 11 -10 11 -3
0 19 -21 27 -32 12 -7 -11 -9 -9 -5 7 4 17 1 20 -14 17 -13 -4 -19 0 -19 11 0
15 -11 20 -37 17 -7 -1 -13 3 -13 9 0 21 -2 25 -16 33 -8 4 -19 5 -26 1 -7 -4
-8 -3 -4 4 4 7 1 12 -6 12 -7 1 -26 12 -43 26 -16 15 -23 23 -15 18 9 -4 12
-3 7 2 -5 5 -13 10 -18 10 -5 1 -14 2 -20 3 -5 0 -7 7 -3 14 6 9 4 9 -8 -1
-14 -11 -19 -10 -32 9 -8 12 -13 26 -11 30 3 4 -4 5 -15 2 -14 -4 -20 0 -20
12 0 12 -5 15 -16 11 -11 -4 -18 1 -21 14 -3 11 -9 17 -14 14 -5 -3 -9 2 -9
11 0 9 -4 13 -10 10 -12 -7 -53 19 -43 28 3 4 -1 7 -11 7 -11 0 -14 4 -10 12
5 8 2 9 -9 5 -11 -4 -17 -1 -17 8 0 8 -3 14 -7 13 -15 -4 -53 14 -48 22 3 4
-7 11 -22 15 -21 5 -24 8 -12 16 11 7 9 9 -8 9 -13 0 -23 5 -23 10 0 6 -6 10
-14 10 -8 0 -23 11 -33 23 -10 13 -26 23 -36 21 -11 -1 -17 4 -17 17 0 10 -5
19 -10 19 -6 0 -15 11 -20 25 -5 14 -14 25 -20 25 -5 0 -10 7 -10 16 0 9 -5
12 -12 8 -7 -5 -8 -3 -4 5 5 7 0 21 -9 31 -16 18 -16 20 -1 26 9 3 16 10 16
15 0 4 -6 6 -13 3 -8 -3 -14 2 -14 11 0 9 6 14 13 11 8 -3 11 0 7 10 -3 7 -10
14 -17 14 -6 0 -4 5 4 10 8 5 11 10 6 10 -5 0 -2 8 5 17 8 10 9 14 2 10 -6 -4
-14 -3 -17 2 -3 5 1 12 9 15 13 4 14 10 5 26 -6 11 -8 20 -4 20 3 0 1 6 -5 14
-9 11 -9 16 0 22 8 5 10 3 4 -7 -5 -8 -4 -10 0 -6 16 14 14 36 -2 30 -13 -5
-12 -2 2 21 17 25 17 26 -1 20 -18 -5 -18 -5 -1 9 18 15 24 32 7 22 -5 -3 -11
0 -11 7 -1 7 -2 20 -3 28 0 8 4 21 11 28 13 14 7 42 -9 42 -6 0 -2 8 9 18 10
9 14 13 7 9 -7 -4 -15 -4 -18 2 -3 5 0 12 6 14 10 4 10 7 0 15 -11 7 -10 11 4
16 16 6 16 7 0 25 -17 18 -16 20 1 30 15 9 15 10 2 11 -9 0 -16 7 -16 15 0 8
4 12 9 9 4 -3 8 0 8 5 0 6 -6 11 -12 11 -9 0 -8 4 2 10 11 7 11 10 2 10 -7 0
-10 5 -7 10 4 6 12 8 18 4 7 -3 4 1 -6 9 -14 11 -15 16 -5 20 10 4 10 8 -2 16
-13 10 -13 11 0 11 13 0 13 1 0 10 -14 9 -7 14 15 11 6 -1 2 5 -8 13 -14 10
-15 15 -5 19 10 4 10 8 -2 16 -13 9 -12 11 5 11 14 0 16 3 7 8 -16 11 -24 50
-10 58 6 4 5 10 -3 15 -11 7 -11 9 -1 9 8 0 10 5 5 13 -11 18 -13 38 -2 31 5
-3 9 0 9 5 0 6 -6 11 -12 11 -9 0 -8 4 2 10 13 8 13 10 1 10 -11 0 -10 4 4 13
14 11 15 16 5 22 -9 6 -11 4 -5 -5 5 -9 4 -11 -4 -6 -9 6 -9 11 0 22 9 11 9
14 -1 14 -9 0 -9 4 1 17 8 9 9 14 4 11 -7 -4 -11 3 -11 17 0 13 4 21 8 19 4
-3 8 0 8 5 0 6 -6 11 -12 11 -9 0 -8 4 2 10 11 7 11 10 2 10 -7 0 -10 5 -7 10
4 6 12 8 18 4 7 -3 4 1 -6 9 -14 11 -15 16 -5 20 10 4 10 8 -2 16 -13 10 -13
11 0 11 13 0 13 1 0 10 -14 9 -7 14 15 11 6 -1 1 6 -9 14 -12 9 -15 15 -7 15
10 0 11 3 2 14 -9 10 -9 16 -1 21 6 4 7 12 2 18 -12 17 -8 62 7 81 11 13 11
17 -3 22 -14 5 -14 9 -4 22 8 10 9 13 1 9 -12 -8 -12 10 0 31 5 7 3 12 -5 12
-9 0 -9 3 2 10 13 9 13 11 0 20 -13 9 -13 10 0 10 13 0 13 1 0 10 -12 8 -12
10 5 11 15 0 16 2 5 7 -8 4 -16 13 -18 20 -1 8 2 11 8 7 5 -3 10 -1 10 4 0 6
-6 11 -12 11 -9 0 -8 4 2 10 11 7 11 10 2 10 -7 0 -10 5 -7 10 4 6 12 8 18 4
7 -3 4 1 -6 9 -14 11 -15 16 -5 20 10 4 10 8 -2 16 -13 10 -13 11 0 11 13 0
13 1 0 10 -14 9 -7 14 15 11 6 -1 2 5 -8 13 -14 10 -15 15 -5 19 10 4 10 8 -2
16 -13 9 -12 11 5 11 14 0 16 3 7 8 -16 11 -24 50 -10 58 6 4 5 10 -3 15 -11
7 -11 9 -1 9 8 0 10 5 5 13 -11 18 -13 38 -2 31 5 -3 9 0 9 5 0 6 -6 11 -12
11 -9 0 -8 4 2 10 13 8 13 10 1 10 -11 0 -10 4 4 13 14 11 15 16 5 22 -9 6
-11 4 -5 -5 5 -9 4 -11 -4 -6 -9 6 -9 11 0 22 9 11 9 14 -1 14 -9 0 -9 4 1 17
8 9 9 14 4 11 -7 -4 -11 3 -11 17 0 13 4 21 8 19 4 -3 8 0 8 5 0 6 -6 11 -12
11 -9 0 -8 4 2 10 11 7 11 10 2 10 -7 0 -10 5 -7 10 4 6 12 8 18 4 7 -3 4 1
-6 9 -14 11 -15 16 -5 20 10 4 10 8 -2 16 -13 10 -13 11 0 11 13 0 13 1 0 10
-14 9 -7 14 15 11 6 -1 2 5 -8 13 -14 10 -15 15 -5 19 10 4 10 8 -2 16 -13 9
-12 11 5 12 15 0 16 2 5 7 -16 8 -21 77 -7 100 5 7 3 12 -5 12 -10 0 -10 2 1
9 7 5 9 11 4 14 -8 5 -9 25 -4 70 1 5 5 5 11 2 6 -3 7 1 4 9 -3 9 -9 14 -13
11 -4 -2 -8 2 -8 10 0 8 4 12 9 9 4 -3 8 -1 8 5 0 5 -5 13 -10 16 -7 4 -7 12
0 24 5 10 6 21 3 25 -15 14 -11 38 4 32 13 -5 14 -4 4 8 -9 10 -9 16 -1 21 8
5 6 14 -7 28 -10 11 -13 17 -7 14 7 -4 15 0 18 8 3 9 -1 18 -10 22 -13 5 -13
8 -2 15 11 8 11 10 0 15 -10 4 -9 8 4 17 13 10 14 15 4 21 -9 6 -11 4 -5 -5 5
-9 4 -11 -4 -6 -9 6 -9 11 0 22 9 11 8 14 -2 14 -8 0 -6 5 5 13 16 12 16 14 2
26 -12 10 -13 18 -5 32 7 14 6 19 -3 20 -11 0 -11 2 0 6 10 4 10 8 0 21 -11
13 -11 15 2 10 12 -4 15 3 15 33 1 20 -2 36 -6 33 -4 -2 -9 3 -12 11 -4 10 -1
12 11 8 15 -6 15 -5 3 10 -11 14 -11 18 4 23 13 5 14 9 3 15 -9 6 -7 9 10 9
12 0 22 5 22 11 0 5 6 7 13 3 8 -5 7 -2 -2 9 -12 15 -12 17 3 11 12 -5 19 0
23 15 3 11 11 21 19 21 7 0 16 5 20 12 5 7 3 8 -6 3 -9 -6 -11 -4 -5 4 4 7 16
10 27 8 16 -5 17 -3 6 11 -8 10 -9 13 -1 9 6 -4 14 -3 18 3 3 5 11 10 16 10 6
0 7 -6 3 -12 -6 -9 -3 -9 9 0 9 8 25 11 36 7 10 -3 22 -1 26 5 3 6 10 8 15 5
5 -3 11 -1 15 5 3 5 8 10 11 10 3 0 2 -4 -1 -10z m4868 -8 c-7 -4 14 -7 47 -6
33 1 60 -2 60 -7 0 -5 10 -9 23 -9 16 0 18 -3 9 -9 -11 -7 -10 -9 3 -15 9 -3
13 -10 10 -16 -3 -6 0 -7 9 -4 16 6 46 -17 46 -36 0 -6 3 -9 8 -6 4 2 12 -7
19 -20 6 -13 7 -21 1 -18 -5 3 -4 -3 3 -14 7 -12 18 -18 24 -14 5 3 4 -2 -4
-11 -11 -14 -11 -17 0 -18 12 0 12 -1 0 -6 -9 -4 -10 -8 -2 -12 15 -9 20 -51
10 -79 -6 -15 -5 -21 1 -17 14 9 12 -8 -2 -24 -10 -11 -10 -13 0 -7 6 4 12 2
12 -3 0 -6 -5 -11 -10 -11 -7 0 -7 -7 1 -21 9 -17 8 -20 -3 -13 -11 6 -11 5 1
-9 9 -12 10 -17 2 -17 -8 0 -9 -5 -2 -17 6 -12 5 -21 -7 -31 -10 -7 -12 -11
-7 -8 6 2 17 1 25 -5 13 -7 13 -9 0 -9 -19 0 -18 -73 1 -97 10 -12 10 -15 2
-9 -13 7 -18 -7 -13 -29 1 -5 2 -14 2 -20 -2 -152 -2 -205 1 -227 3 -16 0 -28
-7 -28 -6 0 -4 -5 4 -10 8 -5 10 -10 4 -10 -12 0 -12 -29 0 -48 4 -7 2 -12 -4
-12 -7 0 -8 -6 -1 -17 5 -10 5 -26 0 -41 -5 -13 -5 -21 0 -18 5 3 11 -1 14 -9
4 -8 1 -12 -6 -9 -7 2 -12 -5 -12 -20 0 -13 2 -23 5 -21 3 2 5 -39 5 -91 0
-56 -4 -94 -10 -94 -5 0 -3 -5 5 -10 11 -7 11 -10 2 -10 -10 0 -10 -5 -1 -21
9 -17 8 -20 -2 -14 -8 5 -10 4 -5 -4 13 -20 14 -61 2 -62 -6 0 -2 -4 9 -9 l20
-9 -20 0 c-17 -1 -17 -3 -5 -11 13 -9 13 -10 0 -10 -13 0 -13 -1 0 -10 11 -7
11 -10 2 -10 -9 0 -10 -5 -3 -17 5 -10 5 -26 0 -39 -7 -19 -5 -22 9 -18 16 5
16 5 0 -8 -11 -9 -14 -19 -8 -28 5 -8 5 -21 0 -31 -5 -9 -7 -19 -4 -22 11 -11
11 -57 0 -57 -6 0 -4 -5 4 -10 8 -5 10 -10 4 -10 -15 0 -11 -35 7 -56 12 -15
12 -16 0 -9 -11 6 -13 3 -9 -13 4 -15 2 -20 -5 -15 -7 4 -6 -1 2 -10 9 -12 10
-17 2 -17 -9 0 -9 -5 0 -21 9 -17 8 -20 -3 -13 -11 6 -11 5 1 -9 10 -13 10
-17 1 -17 -9 0 -9 -4 -2 -13 7 -8 7 -18 2 -27 -5 -8 -6 -18 -3 -23 10 -17 10
-57 -1 -57 -6 0 -4 -5 4 -10 8 -5 10 -10 4 -10 -15 0 -11 -35 7 -56 12 -15 12
-16 0 -9 -11 6 -13 3 -9 -13 4 -15 2 -20 -5 -15 -7 4 -6 -1 2 -10 9 -12 10
-17 2 -17 -9 0 -9 -5 0 -21 9 -17 8 -20 -3 -13 -11 6 -11 5 1 -9 10 -13 10
-17 1 -17 -9 0 -9 -4 -2 -13 7 -8 7 -18 2 -27 -5 -8 -6 -18 -3 -23 10 -17 10
-57 -1 -57 -6 0 -4 -5 4 -10 8 -5 10 -10 4 -10 -15 0 -11 -35 7 -56 12 -15 12
-16 0 -9 -11 6 -13 3 -9 -13 4 -15 2 -20 -5 -15 -7 4 -6 -1 2 -10 9 -12 10
-17 2 -17 -9 0 -9 -5 0 -21 9 -17 8 -20 -3 -13 -11 6 -11 5 1 -9 10 -13 10
-17 1 -17 -9 0 -9 -4 -2 -13 7 -8 7 -18 2 -27 -5 -8 -6 -18 -3 -23 10 -17 10
-57 -1 -57 -6 0 -4 -5 4 -10 8 -5 10 -10 4 -10 -15 0 -11 -35 7 -56 12 -15 12
-16 0 -9 -11 6 -13 3 -9 -13 4 -15 2 -20 -5 -15 -7 4 -6 -1 2 -10 9 -12 10
-17 2 -17 -9 0 -9 -5 0 -21 9 -17 8 -20 -3 -13 -11 6 -11 5 1 -9 10 -13 10
-17 1 -17 -10 0 -10 -4 1 -16 10 -13 10 -17 -2 -25 -12 -7 -12 -9 1 -9 11 0
12 -2 3 -8 -7 -5 -9 -13 -3 -21 4 -8 4 -25 -1 -38 -6 -16 -5 -22 1 -18 6 3 10
1 10 -4 0 -6 -4 -11 -10 -11 -5 0 -7 -7 -4 -15 4 -8 11 -12 18 -8 7 4 6 1 -1
-9 -7 -8 -11 -29 -9 -46 2 -18 -1 -32 -7 -32 -5 0 -4 -7 3 -16 8 -8 9 -14 4
-13 -21 4 -28 -2 -14 -11 11 -7 11 -10 2 -10 -7 0 -10 -4 -7 -10 3 -5 -2 -10
-12 -11 -11 0 -13 -3 -5 -6 10 -4 10 -8 1 -19 -9 -11 -9 -14 0 -14 8 0 7 -5
-3 -15 -8 -8 -17 -15 -21 -15 -12 0 -34 -27 -28 -34 4 -3 1 -6 -5 -6 -6 0 -17
-6 -24 -12 -8 -7 -25 -22 -38 -33 l-25 -20 20 26 c11 14 6 10 -12 -9 -17 -19
-37 -31 -43 -27 -6 3 -9 2 -8 -3 2 -6 0 -10 -4 -11 -12 -2 -48 -40 -48 -51 0
-7 -6 -7 -19 0 -29 15 -37 12 -15 -6 10 -8 13 -13 7 -9 -7 3 -13 0 -13 -7 0
-10 -2 -11 -8 0 -6 9 -12 5 -21 -14 -10 -22 -16 -25 -39 -19 -26 6 -26 6 -7
-10 11 -9 14 -14 8 -10 -7 3 -13 0 -13 -7 0 -9 -3 -9 -10 2 -6 10 -10 11 -10
3 0 -19 -38 -53 -71 -65 -16 -5 -26 -14 -23 -19 3 -5 -2 -9 -11 -9 -10 0 -13
-5 -9 -12 5 -8 2 -9 -9 -5 -10 4 -16 2 -14 -6 1 -7 -8 -11 -20 -11 -21 1 -28
-7 -24 -29 1 -5 -3 -6 -8 -3 -5 4 -15 1 -23 -6 -7 -7 -22 -20 -32 -28 -16 -12
-18 -12 -11 -1 5 10 4 12 -3 7 -7 -4 -12 -14 -12 -23 0 -10 -6 -13 -16 -9 -8
3 -12 2 -9 -4 3 -6 1 -10 -5 -10 -6 0 -8 -5 -4 -12 5 -9 3 -9 -9 1 -14 11 -18
11 -23 -3 -4 -10 -13 -15 -22 -11 -13 5 -13 3 -1 -12 8 -9 9 -14 3 -10 -6 3
-17 -3 -24 -13 -11 -15 -17 -17 -27 -8 -11 8 -12 7 -7 -6 4 -11 1 -16 -13 -16
-26 0 -35 -10 -22 -26 8 -10 5 -11 -12 -7 -14 4 -20 2 -16 -4 4 -6 0 -14 -9
-17 -24 -9 -36 -7 -28 6 4 7 3 8 -5 4 -6 -4 -9 -11 -6 -16 3 -5 -4 -14 -15
-20 -12 -6 -18 -16 -13 -23 4 -7 -1 -6 -11 2 -15 12 -17 12 -14 0 2 -9 -5 -14
-19 -13 -13 1 -20 -3 -17 -7 3 -5 -2 -16 -10 -25 -9 -8 -16 -12 -16 -8 0 4 -8
-2 -18 -14 -15 -17 -21 -19 -32 -9 -7 7 -10 7 -7 2 3 -6 -3 -22 -14 -35 -14
-18 -17 -20 -12 -6 4 13 3 17 -5 12 -7 -4 -12 -13 -12 -21 0 -7 -7 -16 -16
-19 -10 -4 -13 -2 -8 7 3 6 -9 -5 -28 -25 -19 -21 -38 -35 -41 -31 -4 3 -7 1
-7 -5 0 -6 -6 -9 -14 -6 -9 3 -17 -3 -21 -15 -3 -12 -11 -19 -16 -16 -5 4 -9
-1 -9 -11 0 -11 -6 -15 -20 -11 -18 5 -25 -4 -21 -26 1 -5 -3 -5 -9 -2 -6 4
-19 -2 -28 -12 -9 -11 -30 -23 -46 -27 -15 -4 -26 -9 -23 -12 8 -9 -33 -45
-43 -39 -6 4 -10 1 -10 -5 0 -6 -11 -15 -25 -22 -13 -6 -22 -14 -20 -18 6 -10
-57 -40 -69 -33 -5 3 -6 1 -2 -6 4 -6 0 -14 -8 -17 -9 -3 -13 -10 -10 -15 3
-5 -3 -6 -12 -2 -12 4 -15 3 -10 -5 5 -8 -3 -14 -24 -18 -21 -5 -29 -11 -26
-21 3 -8 1 -11 -4 -8 -6 3 -10 0 -10 -8 0 -8 -8 -14 -17 -13 -10 0 -17 -4 -16
-11 1 -6 -8 -10 -22 -8 -13 1 -22 -2 -19 -6 3 -5 -5 -7 -18 -6 -17 3 -23 11
-24 33 -1 16 -3 29 -4 29 -1 0 -3 10 -4 22 -1 12 1 20 6 17 13 -8 6 29 -7 38
-7 5 -7 8 0 8 6 0 10 17 9 38 -1 20 -3 37 -4 37 -1 0 -3 10 -4 22 -1 12 1 20
6 17 4 -3 8 -1 8 5 0 5 -5 13 -10 16 -7 4 -6 13 1 26 7 14 7 24 0 32 -6 8 -6
18 -1 27 12 18 13 33 2 26 -4 -2 -8 4 -8 14 0 10 4 16 8 14 4 -3 8 -1 8 5 0 5
-5 13 -10 16 -7 4 -6 13 1 26 7 15 7 24 -1 34 -8 9 -8 15 0 20 6 3 7 12 3 18
-10 16 -11 47 -2 41 4 -2 7 5 6 16 -1 11 -5 20 -10 20 -4 0 -5 6 0 13 13 21
14 47 1 47 -9 0 -9 3 0 12 13 13 16 32 4 24 -4 -2 -8 4 -8 14 0 10 4 16 8 14
4 -3 8 -1 8 5 0 5 -5 13 -10 16 -6 4 -8 11 -4 16 3 5 7 21 10 35 3 19 1 24 -8
18 -10 -6 -11 -5 -1 8 7 8 10 18 6 22 -10 10 -11 46 -1 40 4 -3 8 -1 8 5 0 5
-5 13 -10 16 -6 4 -8 11 -4 16 12 20 15 61 3 54 -8 -6 -8 -2 0 13 13 24 14 35
3 28 -4 -2 -8 4 -8 14 0 10 4 16 8 14 4 -3 8 -1 8 5 0 5 -5 13 -10 16 -7 4 -6
13 1 26 7 15 7 24 -1 34 -8 9 -8 15 0 20 6 3 7 12 3 18 -10 17 -11 47 -1 41 4
-3 8 -1 8 5 0 5 -5 13 -10 16 -7 4 -6 13 1 26 7 15 7 24 -1 34 -8 9 -8 15 0
20 6 3 7 12 3 18 -10 17 -11 47 -1 41 4 -3 8 -1 8 5 0 5 -5 13 -10 16 -7 4 -6
13 1 26 7 14 7 24 0 32 -6 8 -6 18 -1 27 12 18 13 33 2 26 -4 -2 -8 4 -8 14 0
10 4 16 8 14 4 -3 8 -1 8 5 0 5 -5 13 -10 16 -6 4 -8 11 -4 16 3 5 7 21 10 35
3 19 1 24 -8 18 -10 -6 -11 -5 -1 8 7 8 10 18 6 22 -10 10 -11 46 -1 40 4 -3
8 -1 8 5 0 5 -5 13 -10 16 -6 4 -8 11 -4 16 12 21 14 59 2 59 -9 0 -9 3 0 12
13 13 16 32 4 24 -4 -2 -8 4 -8 14 0 10 4 17 8 14 4 -2 6 5 5 16 -1 11 -5 20
-10 20 -4 0 -5 6 0 13 14 22 14 49 1 41 -10 -6 -10 -5 -1 8 7 8 10 18 6 22 -9
9 -11 46 -2 40 4 -2 7 5 6 16 -1 11 -5 20 -10 20 -4 0 -5 6 0 13 13 20 13 41
0 49 -9 6 -9 8 1 8 8 0 10 5 6 12 -11 17 -12 48 -2 42 4 -3 8 -1 8 5 0 5 -5
13 -10 16 -7 4 -6 13 1 26 7 15 7 24 -1 34 -8 9 -8 15 0 20 6 3 7 12 3 18 -10
17 -11 47 -1 41 4 -3 8 -1 8 5 0 5 -5 13 -10 16 -7 4 -6 13 1 26 7 15 7 24 -1
34 -8 9 -8 15 0 20 6 3 7 12 3 18 -10 16 -11 47 -2 41 4 -2 7 5 6 16 -1 11 -5
20 -10 20 -4 0 -5 6 0 13 14 22 14 49 1 41 -10 -6 -10 -5 -1 8 7 8 10 18 6 22
-9 9 -11 46 -2 40 4 -2 7 5 6 16 -1 11 -5 20 -10 20 -4 0 -5 6 0 13 13 20 13
41 0 49 -9 6 -9 8 1 8 8 0 10 5 6 12 -11 17 -12 48 -2 42 4 -3 8 -1 8 5 0 5
-5 13 -10 16 -7 4 -6 13 1 26 7 15 7 24 -1 34 -8 9 -8 15 0 20 6 3 7 12 3 18
-10 16 -11 47 -2 41 4 -2 7 5 6 16 -1 11 -5 20 -10 20 -5 0 -4 7 3 15 9 11 9
19 2 28 -7 8 -7 18 -2 27 12 18 13 33 2 26 -4 -2 -8 4 -8 14 0 10 4 16 8 14 4
-3 8 -1 8 5 0 5 -5 13 -10 16 -7 4 -6 13 1 26 7 15 7 24 -1 34 -8 9 -8 15 0
20 6 3 7 12 3 18 -10 17 -11 47 -1 41 4 -3 8 -1 8 5 0 5 -5 13 -10 16 -6 4 -8
11 -4 16 3 5 7 21 10 35 3 19 1 24 -8 18 -10 -6 -10 -5 0 8 8 11 9 18 3 22 -6
4 -3 19 9 40 10 19 16 38 12 42 -4 5 1 2 11 -5 15 -12 17 -12 11 3 -4 11 -2
16 7 14 8 -2 13 2 12 9 -2 7 4 10 12 7 8 -4 15 -1 15 6 0 6 5 8 10 5 6 -3 10
0 10 7 0 8 9 21 20 31 13 11 20 13 20 4 0 -9 3 -8 9 1 4 8 12 13 17 12 4 -1
11 7 15 17 4 10 8 15 8 10 1 -4 12 0 26 9 14 9 22 20 20 25 -3 4 3 6 15 4 11
-2 23 1 26 7 5 7 2 8 -7 3 -8 -4 -5 1 6 12 11 11 23 19 28 16 4 -2 7 1 7 8 0
6 8 9 20 6 11 -3 18 -1 14 4 -3 5 0 9 6 9 6 0 8 5 5 10 -3 6 1 10 10 10 9 0
13 5 10 10 -3 6 -1 11 4 11 43 5 70 20 64 35 -5 12 7 19 30 15 4 -1 10 6 13
14 3 8 10 12 15 9 5 -3 12 2 15 10 3 9 13 16 21 16 8 0 12 4 8 9 -7 12 24 29
47 26 11 -2 15 2 11 11 -3 9 0 14 8 12 7 -2 14 3 15 10 3 26 5 27 14 12 8 -13
10 -13 10 2 0 11 5 15 15 12 8 -4 15 -1 15 6 0 6 4 8 10 5 6 -4 7 1 3 11 -4
12 -3 15 5 10 7 -4 15 -1 18 8 3 8 19 18 36 21 18 4 32 15 35 26 3 10 9 16 14
14 4 -3 13 4 19 15 6 11 20 20 31 20 13 0 18 4 13 12 -5 8 -2 9 9 5 10 -3 17
-2 17 4 0 6 7 18 16 27 19 18 48 26 38 10 -4 -7 -2 -8 4 -4 7 4 12 14 12 22 0
8 5 14 11 14 5 0 8 4 5 9 -4 5 3 7 14 4 18 -5 25 5 21 30 -1 5 3 6 9 2 6 -3 8
-12 4 -18 -3 -7 10 5 30 26 19 22 39 36 44 33 6 -3 13 1 16 10 3 8 10 12 16 9
9 -6 14 8 11 28 -1 5 3 6 9 2 5 -3 13 0 16 9 3 8 14 13 25 11 10 -2 22 1 25 7
5 7 2 8 -7 4 -8 -4 -5 -1 5 8 10 8 24 12 30 9 6 -4 5 1 -2 10 -12 14 -11 16 7
12 12 -2 20 1 18 8 -1 7 5 12 13 12 8 0 19 6 23 13 5 7 12 10 18 7 8 -5 13 7
11 27 -1 3 5 9 13 12 8 3 15 1 15 -5 0 -6 5 -7 10 -4 6 4 7 11 4 17 -4 6 -2 8
4 4 6 -3 18 4 26 16 11 15 16 18 17 8 0 -8 4 -5 9 8 10 24 30 30 30 10 0 -9 3
-10 8 -2 4 6 22 11 41 12 18 0 36 3 39 6 3 3 12 6 21 6 12 0 13 -2 4 -8z
m-3353 -132 c0 -5 -5 -10 -11 -10 -5 0 -7 5 -4 10 3 6 8 10 11 10 2 0 4 -4 4
-10z m874 -682 c-5 -7 -2 -9 8 -6 8 4 21 2 29 -2 8 -6 16 -4 21 3 6 9 8 9 8 0
0 -7 5 -13 11 -13 5 0 7 4 4 10 -3 5 0 7 8 4 12 -4 15 -46 15 -240 0 -138 -3
-232 -9 -229 -5 4 -6 -1 -3 -9 3 -9 11 -13 17 -9 6 4 7 1 2 -7 -4 -6 -7 -32
-7 -56 1 -33 -2 -43 -11 -38 -7 4 -4 -2 6 -13 13 -15 15 -23 7 -28 -9 -6 -9
-10 1 -16 10 -6 11 -9 2 -9 -7 0 -13 -7 -13 -15 0 -8 6 -15 13 -16 10 0 10 -2
0 -6 -7 -2 -13 -14 -13 -24 0 -13 4 -18 12 -13 7 5 8 3 3 -6 -4 -6 -7 -32 -7
-56 1 -33 -2 -43 -11 -38 -7 4 -4 -2 6 -13 13 -15 15 -23 7 -28 -9 -6 -9 -10
1 -16 10 -6 11 -9 2 -9 -7 0 -13 -7 -13 -15 0 -8 6 -15 13 -16 10 0 10 -2 0
-6 -7 -2 -13 -14 -13 -24 0 -13 4 -18 12 -13 7 5 8 3 3 -6 -4 -6 -7 -32 -7
-56 1 -33 -2 -43 -11 -38 -7 4 -4 -2 6 -13 9 -11 14 -22 11 -26 -3 -3 -6 -150
-6 -326 0 -188 -3 -319 -9 -316 -5 4 -6 -1 -3 -9 3 -9 11 -13 17 -9 6 4 7 1 2
-7 -4 -6 -7 -32 -7 -56 1 -33 -2 -43 -11 -38 -7 4 -4 -2 6 -13 13 -15 15 -23
7 -28 -9 -6 -9 -10 1 -16 10 -6 11 -9 2 -9 -7 0 -13 -7 -13 -15 0 -8 6 -15 13
-16 10 0 10 -2 0 -6 -7 -2 -13 -14 -13 -24 0 -13 4 -18 12 -13 7 5 8 3 3 -6
-4 -6 -7 -32 -7 -56 1 -33 -2 -43 -11 -38 -7 4 -4 -2 6 -13 13 -15 15 -23 7
-28 -9 -6 -9 -10 1 -16 10 -6 11 -9 2 -9 -7 0 -13 -7 -13 -15 0 -8 6 -15 13
-16 10 0 10 -2 0 -6 -7 -2 -13 -14 -13 -24 0 -13 4 -18 12 -13 7 5 8 3 3 -6
-4 -6 -7 -32 -7 -56 1 -33 -2 -43 -11 -38 -7 4 -4 -2 6 -13 9 -11 14 -22 11
-26 -3 -3 -6 -150 -6 -326 0 -188 -3 -319 -9 -316 -5 4 -6 -1 -3 -9 3 -9 11
-13 17 -9 6 4 7 1 2 -7 -4 -6 -7 -32 -7 -56 1 -33 -2 -43 -11 -38 -7 4 -4 -2
6 -13 13 -15 15 -23 7 -28 -9 -6 -9 -10 1 -16 10 -6 11 -9 2 -9 -7 0 -13 -7
-13 -15 0 -8 6 -15 13 -16 10 0 10 -2 0 -6 -7 -2 -13 -14 -13 -24 0 -13 4 -18
12 -13 7 5 8 3 3 -6 -4 -6 -7 -32 -7 -56 1 -33 -2 -43 -11 -38 -7 4 -4 -2 6
-13 13 -15 15 -23 7 -28 -9 -6 -9 -10 1 -16 10 -6 11 -9 2 -9 -7 0 -13 -7 -13
-15 0 -8 6 -15 13 -16 10 0 10 -2 0 -6 -7 -2 -13 -14 -13 -24 0 -13 4 -18 12
-13 7 5 8 3 3 -6 -4 -6 -7 -32 -7 -56 1 -33 -2 -43 -11 -38 -7 4 -4 -2 6 -13
9 -11 14 -22 11 -26 -4 -3 -6 -78 -6 -167 0 -120 -2 -158 -11 -153 -7 4 -6 0
1 -10 8 -9 12 -22 9 -29 -2 -7 0 -24 5 -37 7 -19 5 -22 -7 -18 -12 5 -13 3 -3
-12 15 -24 4 -53 -18 -44 -9 3 -20 0 -25 -8 -6 -10 -9 -10 -9 -2 0 7 -7 10
-15 7 -22 -9 -80 17 -63 27 9 6 9 9 1 9 -8 0 -9 9 -3 30 5 19 5 28 -1 25 -5
-4 -9 -1 -9 4 0 6 5 11 10 11 7 0 7 6 1 19 -6 10 -8 20 -6 23 9 9 12 68 4 62
-11 -6 -12 10 -2 20 10 10 11 66 1 60 -11 -7 -10 8 2 26 6 10 4 21 -8 34 -9
11 -12 16 -6 13 7 -4 14 2 17 13 3 11 1 18 -4 14 -11 -6 -11 -6 0 34 6 20 6
30 0 27 -15 -10 -10 7 9 29 14 17 14 18 1 8 -14 -10 -18 -10 -23 3 -3 9 -2 14
3 11 5 -3 11 3 14 14 3 12 -1 24 -11 30 -12 7 -13 9 -3 10 8 0 11 7 8 20 -3
11 -2 18 2 15 4 -2 8 2 8 10 0 8 -3 12 -6 11 -3 -2 -6 20 -6 49 0 29 2 52 5
50 3 -2 5 7 5 20 0 13 -3 21 -6 19 -4 -2 -10 3 -13 12 -3 8 -2 12 4 9 6 -3 10
-1 10 5 0 6 5 8 12 4 7 -4 8 -3 4 5 -4 6 -13 8 -19 4 -7 -4 -5 2 3 12 8 10 10
16 4 12 -7 -4 -15 0 -18 9 -3 8 -2 12 4 9 13 -8 13 11 -2 38 -10 19 -9 20 4
10 12 -11 14 -7 11 29 -2 22 2 48 9 57 11 14 11 14 -3 3 -14 -10 -18 -10 -23
3 -3 9 -2 14 3 11 5 -3 11 3 14 14 3 12 -1 24 -11 30 -12 7 -13 9 -3 10 8 0
11 7 8 20 -3 11 -2 18 2 15 4 -2 8 2 8 10 0 8 -4 12 -9 9 -11 -7 -10 7 2 26 6
10 4 21 -8 34 -9 11 -12 16 -6 13 7 -4 14 2 17 13 3 11 1 18 -4 14 -11 -6 -11
-6 0 34 6 20 6 30 0 27 -12 -8 -11 6 1 25 6 10 4 21 -8 34 -9 11 -12 16 -6 13
7 -4 14 2 17 13 3 11 1 18 -4 14 -11 -6 -11 -6 0 34 6 20 6 30 0 27 -12 -8
-11 6 1 25 6 10 4 21 -8 34 -9 11 -12 16 -6 13 7 -4 14 2 17 13 3 11 1 18 -4
14 -11 -6 -11 -6 0 34 6 20 6 30 0 27 -12 -8 -11 6 1 25 6 10 4 21 -8 34 -9
11 -12 16 -6 13 7 -4 14 2 17 13 3 11 1 18 -4 14 -11 -6 -11 -6 0 34 6 20 6
30 0 27 -15 -10 -10 7 9 29 14 17 14 18 1 8 -14 -10 -18 -10 -23 3 -3 9 -2 14
3 11 5 -3 11 3 14 14 3 12 -1 24 -11 30 -12 7 -13 9 -3 10 8 0 11 7 8 20 -3
11 -2 18 2 15 4 -2 8 2 8 10 0 8 -3 12 -6 11 -3 -2 -6 20 -6 49 0 29 2 52 5
50 3 -2 5 7 5 20 0 13 -3 21 -6 19 -4 -2 -10 3 -13 12 -3 8 -2 12 4 9 6 -3 10
-1 10 5 0 6 5 8 12 4 7 -4 8 -3 4 5 -4 6 -13 8 -19 4 -7 -4 -5 2 3 12 8 10 10
16 4 12 -7 -4 -15 0 -18 9 -3 8 -2 12 4 9 13 -8 13 11 -2 38 -10 19 -9 20 4
10 12 -11 14 -7 11 29 -2 22 2 48 9 57 11 14 11 14 -3 3 -14 -10 -18 -10 -23
3 -3 9 -2 14 3 11 5 -3 11 3 14 14 3 12 -1 24 -11 30 -12 7 -13 9 -3 10 8 0
11 7 8 20 -3 11 -2 18 2 15 4 -2 8 2 8 10 0 8 -4 12 -9 9 -11 -7 -10 7 2 26 6
10 4 21 -8 34 -9 11 -12 16 -6 13 7 -4 14 2 17 13 3 11 1 18 -4 14 -11 -6 -11
-6 0 34 6 20 6 30 0 27 -12 -8 -11 6 1 25 6 10 4 21 -8 34 -9 11 -12 16 -6 13
7 -4 14 2 17 13 3 11 1 18 -4 14 -11 -6 -11 -6 0 34 6 20 6 30 0 27 -12 -8
-11 6 1 25 6 10 4 21 -8 34 -9 11 -12 16 -6 13 7 -4 14 2 17 13 3 11 1 18 -4
14 -11 -6 -11 -6 0 34 6 20 6 30 0 27 -12 -8 -11 6 1 25 6 10 4 21 -8 34 -9
11 -12 16 -6 13 7 -4 14 2 17 13 3 11 1 18 -4 14 -11 -6 -11 -6 0 34 6 20 6
30 0 27 -15 -10 -10 7 9 29 14 17 14 18 1 8 -14 -10 -18 -10 -23 3 -3 9 -2 14
3 11 5 -3 11 3 14 14 3 12 -1 24 -11 30 -12 7 -13 9 -3 10 8 0 11 7 8 20 -3
11 -2 18 2 15 4 -2 8 2 8 10 0 8 -3 12 -6 11 -3 -2 -6 20 -6 49 0 29 2 52 5
50 3 -2 5 7 5 20 0 13 -3 21 -6 19 -4 -2 -10 3 -13 12 -3 8 -2 12 4 9 6 -3 10
-1 10 5 0 6 5 8 12 4 7 -4 8 -3 4 5 -4 6 -13 8 -19 4 -7 -4 -5 2 3 12 8 10 10
16 4 12 -7 -4 -15 0 -18 9 -3 8 -2 12 4 9 13 -8 13 11 -2 38 -10 19 -9 20 4
10 12 -11 14 -7 11 29 -2 22 2 48 9 57 11 14 11 14 -3 3 -14 -10 -18 -10 -23
3 -3 9 -2 14 3 11 5 -3 11 3 14 14 3 12 -1 24 -11 30 -12 7 -13 9 -3 10 8 0
11 7 8 20 -3 11 -2 18 2 15 4 -2 8 2 8 10 0 8 -4 12 -9 9 -11 -7 -10 7 2 26 6
10 4 21 -8 34 -9 11 -12 16 -6 13 7 -4 14 2 17 13 3 11 1 18 -4 14 -11 -6 -11
-6 0 34 6 20 6 30 0 27 -5 -4 -9 -2 -9 4 0 5 5 13 10 16 6 4 8 11 5 16 -4 5
-1 9 6 9 8 0 9 3 0 13 -6 8 -8 17 -4 21 4 4 -1 4 -12 1 -20 -7 -20 -6 -1 9 15
12 16 16 5 16 -10 1 -9 5 5 15 12 9 15 15 7 15 -8 0 -11 6 -7 16 3 8 2 12 -4
9 -6 -3 -10 -2 -10 4 0 5 4 12 9 15 10 7 9 25 -2 44 -5 7 -3 12 5 13 10 0 10
2 1 6 -9 3 -10 10 -3 23 8 15 6 21 -7 29 -17 10 -17 10 -1 11 10 0 22 9 28 20
6 11 13 20 16 20 3 0 2 -5 -2 -12z m-172 -53 c3 -25 0 -35 -10 -35 -7 0 -10
-5 -7 -10 4 -6 9 -8 13 -6 4 2 8 -7 8 -20 1 -13 -3 -24 -10 -24 -6 0 -4 -5 4
-10 10 -6 11 -10 3 -10 -7 0 -13 -5 -13 -11 0 -5 3 -8 8 -6 4 3 8 -6 8 -19 1
-13 -2 -24 -7 -24 -5 0 -9 -7 -9 -16 0 -8 4 -13 8 -10 5 3 9 -1 9 -9 0 -8 -4
-12 -9 -9 -14 9 -9 -9 8 -28 15 -16 15 -18 1 -24 -9 -3 -13 -12 -10 -21 5 -12
2 -14 -8 -9 -8 4 -5 0 5 -8 11 -9 14 -16 8 -16 -7 0 -12 -5 -12 -11 0 -5 5 -7
10 -4 6 3 10 1 10 -4 0 -6 -4 -11 -10 -11 -5 0 -10 -5 -10 -11 0 -5 3 -8 8 -6
4 3 8 -6 8 -19 1 -13 -2 -24 -7 -24 -6 0 -5 -9 1 -20 9 -16 8 -20 -5 -20 -9 0
-13 -5 -10 -10 4 -6 9 -8 13 -6 4 2 7 -6 7 -19 0 -13 -4 -20 -10 -17 -5 3 -4
-2 4 -11 12 -15 11 -17 -3 -17 -10 0 -14 -5 -11 -10 4 -6 9 -8 13 -6 4 2 7 -7
7 -20 0 -13 -3 -24 -7 -24 -5 0 -8 -5 -8 -11 0 -5 3 -8 8 -6 4 3 8 -6 8 -19 1
-13 -2 -24 -7 -24 -5 0 -9 -7 -9 -16 0 -8 4 -13 8 -10 5 3 9 -1 9 -9 0 -8 -4
-12 -9 -9 -14 9 -9 -9 8 -28 15 -16 15 -18 1 -24 -9 -3 -13 -12 -10 -21 5 -12
2 -14 -8 -9 -8 4 -5 0 5 -8 11 -9 14 -16 8 -16 -7 0 -12 -5 -12 -11 0 -5 5 -7
10 -4 6 3 10 1 10 -4 0 -6 -4 -11 -10 -11 -5 0 -10 -5 -10 -11 0 -5 3 -8 8 -6
4 3 8 -6 8 -19 1 -13 -2 -24 -7 -24 -6 0 -5 -9 1 -20 9 -16 8 -20 -5 -20 -9 0
-13 -5 -10 -10 4 -6 9 -8 13 -6 4 2 7 -6 7 -19 0 -13 -4 -20 -10 -17 -5 3 -4
-2 4 -11 12 -15 11 -17 -3 -17 -10 0 -14 -5 -11 -10 4 -6 9 -8 13 -6 4 2 7 -7
7 -20 0 -13 -3 -24 -7 -24 -5 0 -8 -5 -8 -11 0 -5 3 -8 8 -6 4 3 8 -6 8 -19 1
-13 -2 -24 -7 -24 -5 0 -9 -7 -9 -16 0 -8 4 -13 8 -10 5 3 9 -1 9 -9 0 -8 -4
-12 -9 -9 -14 9 -9 -9 8 -28 15 -16 15 -18 1 -24 -9 -3 -13 -12 -10 -21 5 -12
2 -14 -8 -9 -8 4 -5 0 5 -8 11 -9 14 -16 8 -16 -7 0 -12 -5 -12 -11 0 -5 5 -7
10 -4 6 3 10 1 10 -4 0 -6 -4 -11 -10 -11 -5 0 -10 -5 -10 -11 0 -5 3 -8 8 -6
4 3 8 -6 8 -19 1 -13 -3 -24 -10 -24 -6 0 -4 -5 4 -10 10 -6 11 -10 3 -10 -7
0 -13 -5 -13 -11 0 -5 3 -8 8 -6 4 3 8 -6 8 -19 1 -13 -2 -24 -7 -24 -5 0 -9
-7 -9 -16 0 -8 4 -13 8 -10 5 3 9 -1 9 -9 0 -8 -4 -12 -9 -9 -14 9 -9 -9 8
-28 15 -16 15 -18 1 -24 -9 -3 -13 -12 -10 -21 5 -12 2 -14 -8 -9 -8 4 -5 0 5
-8 11 -9 14 -16 8 -16 -7 0 -12 -5 -12 -11 0 -5 5 -7 10 -4 6 3 10 1 10 -4 0
-6 -4 -11 -10 -11 -5 0 -10 -5 -10 -11 0 -5 3 -8 8 -6 4 3 8 -6 8 -19 1 -13
-2 -24 -7 -24 -6 0 -5 -9 1 -20 9 -16 8 -20 -5 -20 -9 0 -13 -5 -10 -10 4 -6
9 -8 13 -6 4 2 7 -6 7 -19 0 -13 -4 -20 -10 -17 -5 3 -4 -2 4 -11 12 -15 11
-17 -3 -17 -10 0 -14 -5 -11 -10 4 -6 9 -8 13 -6 4 2 7 -7 7 -20 0 -13 -3 -24
-7 -24 -5 0 -8 -5 -8 -11 0 -5 3 -8 8 -6 4 3 8 -6 8 -19 1 -13 -2 -24 -7 -24
-5 0 -9 -7 -9 -16 0 -8 4 -13 8 -10 5 3 9 -1 9 -9 0 -8 -4 -12 -9 -9 -14 9 -9
-9 8 -28 15 -16 15 -18 1 -24 -9 -3 -13 -12 -10 -21 5 -12 2 -14 -8 -9 -8 4
-5 0 5 -8 11 -9 14 -16 8 -16 -7 0 -12 -5 -12 -11 0 -5 5 -7 10 -4 5 3 10 1
10 -4 0 -6 -4 -11 -10 -11 -5 0 -10 -5 -10 -11 0 -5 3 -8 8 -6 4 3 8 -6 8 -19
1 -13 -2 -24 -7 -24 -6 0 -5 -9 1 -20 9 -16 8 -20 -5 -20 -9 0 -13 -5 -10 -10
4 -6 9 -8 13 -6 4 2 7 -6 7 -19 0 -13 -4 -20 -10 -17 -5 3 -4 -2 4 -11 12 -15
11 -17 -3 -17 -10 0 -14 -5 -11 -10 4 -6 9 -8 13 -6 4 2 7 -7 7 -20 0 -13 -3
-24 -7 -24 -5 0 -8 -5 -8 -11 0 -5 3 -8 8 -6 4 3 8 -6 8 -19 1 -13 -2 -24 -7
-24 -5 0 -9 -7 -9 -16 0 -8 4 -13 8 -10 5 3 9 -1 9 -9 0 -8 -4 -12 -9 -9 -14
9 -9 -9 8 -28 15 -16 15 -18 1 -24 -9 -3 -13 -12 -10 -21 5 -12 2 -14 -8 -9
-8 4 -5 0 5 -8 11 -9 14 -16 8 -16 -7 0 -12 -5 -12 -11 0 -5 5 -7 10 -4 6 3
10 1 10 -4 0 -6 -4 -11 -10 -11 -5 0 -10 -5 -10 -11 0 -5 3 -8 8 -6 4 3 8 -6
8 -19 1 -13 -3 -24 -10 -24 -6 0 -4 -5 4 -10 10 -6 11 -10 3 -10 -7 0 -13 -5
-13 -11 0 -5 3 -8 8 -6 4 3 8 -6 8 -19 1 -13 -2 -24 -7 -24 -5 0 -9 -7 -9 -16
0 -8 4 -13 8 -10 5 3 9 -1 9 -9 0 -8 -4 -12 -9 -9 -14 9 -9 -9 8 -28 15 -16
15 -18 1 -24 -9 -3 -13 -12 -10 -21 5 -12 2 -14 -8 -9 -8 4 -5 0 5 -8 11 -9
14 -16 8 -16 -7 0 -12 -5 -12 -11 0 -5 5 -7 10 -4 6 3 10 1 10 -4 0 -6 -4 -11
-10 -11 -5 0 -10 -5 -10 -11 0 -5 3 -8 8 -6 4 3 8 -6 8 -19 1 -13 -2 -24 -7
-24 -6 0 -5 -9 1 -20 9 -16 8 -20 -5 -20 -9 0 -13 -5 -10 -10 4 -6 9 -8 13 -6
4 2 7 -6 7 -19 0 -13 -4 -20 -10 -17 -5 3 -4 -2 4 -11 12 -15 11 -17 -3 -17
-10 0 -14 -5 -11 -10 4 -6 9 -8 13 -6 4 2 7 -7 7 -20 0 -13 -3 -24 -7 -24 -5
0 -8 -5 -8 -11 0 -5 3 -8 8 -6 4 3 8 -6 8 -19 1 -13 -2 -24 -7 -24 -5 0 -9 -7
-9 -16 0 -8 4 -13 8 -10 5 3 9 -1 9 -9 0 -8 -4 -12 -9 -9 -14 9 -9 -9 8 -28
15 -16 15 -18 1 -24 -9 -3 -13 -12 -10 -21 5 -12 2 -14 -8 -9 -8 4 -5 0 5 -8
11 -9 14 -16 8 -16 -7 0 -12 -5 -12 -11 0 -5 5 -7 10 -4 6 3 10 1 10 -4 0 -6
-4 -11 -10 -11 -5 0 -10 -5 -10 -11 0 -5 3 -8 8 -6 4 3 8 -6 8 -19 1 -13 -2
-24 -7 -24 -6 0 -5 -9 1 -20 9 -16 8 -20 -5 -20 -9 0 -13 -5 -10 -10 4 -6 9
-8 13 -6 4 2 7 -6 7 -19 0 -13 -4 -20 -10 -17 -5 3 -4 -2 4 -11 12 -15 11 -17
-3 -17 -10 0 -14 -5 -11 -10 4 -6 9 -8 13 -6 4 2 7 -7 7 -20 0 -13 -3 -24 -7
-24 -5 0 -8 -5 -8 -11 0 -5 3 -8 8 -6 4 3 8 -6 8 -19 1 -13 -2 -24 -7 -24 -5
0 -9 -7 -9 -16 0 -8 4 -13 8 -10 5 3 9 -1 9 -9 0 -8 -4 -12 -9 -9 -14 9 -9 -9
8 -28 15 -16 15 -18 1 -24 -9 -3 -13 -12 -10 -21 5 -12 2 -14 -8 -9 -8 4 -6 1
4 -7 12 -10 14 -16 6 -19 -10 -3 -10 -12 -1 -37 10 -30 10 -32 -6 -27 -15 5
-15 5 1 -8 14 -10 15 -15 5 -19 -10 -4 -10 -8 2 -16 12 -8 12 -11 1 -11 -10 0
-11 -3 -2 -13 6 -8 9 -16 6 -19 -3 -3 -6 -22 -7 -42 -1 -31 -5 -36 -25 -36
-12 0 -23 6 -23 13 0 8 -4 7 -10 -3 -6 -10 -10 -11 -10 -2 0 6 -7 12 -15 12
-8 0 -15 5 -15 10 0 6 -6 10 -14 10 -8 0 -17 4 -20 9 -9 14 -15 112 -7 107 4
-3 8 1 8 9 0 8 -3 12 -7 10 -4 -2 -6 14 -6 35 1 22 6 40 11 40 7 0 7 3 0 8
-13 9 -13 105 0 114 7 5 7 8 0 8 -5 0 -10 27 -10 59 -1 33 3 57 7 55 4 -3 5 2
2 10 -11 28 -10 106 0 106 7 0 8 3 1 8 -12 8 -15 123 -3 116 4 -3 5 2 2 10
-11 28 -10 106 0 106 7 0 8 3 1 8 -12 8 -15 123 -3 116 4 -3 5 2 2 10 -11 28
-10 106 0 106 7 0 8 3 1 8 -12 8 -15 123 -3 116 4 -3 5 2 2 10 -11 28 -10 106
0 106 7 0 8 3 1 8 -12 8 -15 123 -3 116 4 -3 5 2 2 10 -11 28 -10 106 0 106 7
0 8 3 1 8 -12 8 -15 123 -3 116 4 -3 5 2 2 10 -11 28 -10 106 0 106 7 0 8 3 1
8 -12 8 -15 123 -3 116 4 -3 5 2 2 10 -11 28 -10 106 0 106 7 0 8 3 1 8 -12 8
-15 123 -3 116 4 -3 5 2 2 10 -11 28 -10 106 0 106 7 0 8 3 1 8 -12 8 -15 123
-3 116 4 -3 5 2 2 10 -11 28 -10 106 0 106 7 0 8 3 1 8 -12 8 -16 124 -4 116
4 -2 4 10 -2 28 -11 40 -11 40 -1 34 5 -3 9 1 9 9 0 8 -3 12 -7 10 -3 -2 -6
16 -6 40 0 24 4 41 8 39 4 -3 5 2 2 10 -11 28 -10 106 0 106 7 0 8 3 1 8 -12
8 -15 123 -3 116 4 -3 5 2 2 10 -11 28 -10 106 0 106 7 0 8 3 1 8 -12 8 -15
123 -3 116 4 -3 5 2 2 10 -11 28 -10 106 0 106 7 0 8 3 1 8 -12 8 -15 123 -3
116 4 -3 5 2 2 10 -11 28 -10 106 0 106 7 0 8 3 1 8 -12 8 -15 123 -3 116 4
-3 5 2 2 10 -11 28 -10 106 0 106 7 0 8 3 1 8 -5 4 -10 44 -10 89 0 45 2 80 4
78 2 -2 10 3 18 11 8 8 19 12 24 9 5 -4 9 0 9 7 0 8 3 9 8 3 4 -5 13 -11 21
-13 12 -3 12 -1 0 14 -9 11 -9 15 -2 10 7 -4 21 -3 30 3 24 13 30 7 35 -34z
m438 12 c0 -5 8 -3 17 4 14 12 16 12 8 0 -6 -11 -4 -13 8 -8 10 4 16 2 14 -6
-1 -7 6 -11 16 -9 9 2 17 -2 17 -9 0 -6 7 -8 16 -5 8 3 12 2 9 -4 -3 -6 2 -10
12 -10 15 0 16 -2 3 -10 -13 -9 -13 -10 0 -10 13 0 13 -1 0 -10 -10 -6 -11
-10 -2 -10 6 0 12 -5 12 -11 0 -5 -3 -8 -7 -6 -5 3 -8 -10 -8 -29 0 -23 5 -34
15 -35 10 0 9 -3 -4 -8 -17 -7 -17 -8 -2 -24 15 -14 15 -17 2 -17 -8 0 -18 -4
-21 -10 -3 -5 0 -7 9 -4 12 5 13 0 7 -23 -6 -20 -3 -31 8 -41 14 -11 14 -11
-1 -6 -13 4 -16 1 -13 -15 2 -12 7 -26 10 -31 3 -6 0 -10 -7 -11 -10 0 -10 -2
1 -6 11 -5 11 -7 0 -14 -9 -5 -10 -9 -2 -9 15 0 4 -40 -11 -40 -6 -1 0 -7 14
-15 18 -10 20 -14 8 -15 -9 0 -20 -4 -23 -10 -3 -5 0 -7 9 -4 13 5 14 1 6 -25
-7 -26 -6 -31 8 -32 15 -1 14 -2 -1 -6 -14 -4 -16 -8 -6 -19 6 -8 8 -14 3 -14
-5 0 -9 -13 -9 -29 -1 -16 3 -27 9 -24 5 3 6 1 2 -6 -4 -6 -2 -20 6 -29 12
-15 11 -16 -4 -3 -22 17 -24 -2 -2 -23 13 -14 14 -16 0 -16 -8 0 -18 -4 -21
-10 -3 -5 0 -8 7 -5 10 4 13 -7 12 -42 -1 -27 4 -55 10 -63 10 -13 9 -13 -6
-1 -22 17 -24 -2 -2 -23 13 -14 14 -16 0 -16 -8 0 -18 -4 -21 -10 -3 -5 0 -7
9 -4 13 5 14 1 6 -25 -7 -26 -6 -31 8 -32 15 -1 14 -2 -1 -6 -14 -4 -16 -8 -6
-19 6 -8 8 -14 3 -14 -5 0 -9 -13 -9 -29 -1 -16 3 -27 9 -24 5 3 6 1 2 -6 -4
-6 -2 -20 6 -29 12 -15 11 -16 -4 -3 -22 17 -24 -2 -2 -23 13 -14 14 -16 0
-16 -8 0 -18 -4 -21 -10 -3 -5 0 -7 9 -4 13 5 14 1 6 -25 -7 -26 -6 -31 8 -32
15 -1 14 -2 -1 -6 -14 -4 -16 -8 -6 -19 6 -8 8 -14 3 -14 -5 0 -9 -13 -9 -29
-1 -16 3 -27 9 -24 5 3 6 1 2 -6 -4 -6 -2 -20 6 -29 12 -15 11 -16 -4 -3 -22
17 -24 -2 -2 -23 13 -14 14 -16 0 -16 -8 0 -18 -4 -21 -10 -3 -5 0 -7 8 -4 11
4 12 -5 7 -46 -5 -41 -4 -50 9 -51 12 0 11 -2 -3 -8 -17 -7 -17 -8 -2 -24 15
-14 15 -17 2 -17 -8 0 -18 -4 -21 -10 -3 -5 0 -7 9 -4 13 5 14 1 6 -25 -7 -26
-6 -31 8 -32 15 -1 14 -2 -1 -6 -14 -4 -16 -8 -6 -19 6 -8 8 -14 3 -14 -5 0
-9 -13 -9 -29 -1 -16 3 -27 9 -24 5 3 6 1 2 -6 -4 -6 -2 -20 6 -29 12 -15 11
-16 -4 -3 -22 17 -24 -2 -2 -23 13 -14 14 -16 0 -16 -8 0 -18 -4 -21 -10 -3
-5 0 -7 9 -4 13 5 14 1 6 -25 -7 -26 -6 -31 8 -32 15 -1 14 -2 -1 -6 -14 -4
-16 -8 -6 -19 6 -8 8 -14 3 -14 -5 0 -9 -13 -9 -29 -1 -16 3 -27 9 -24 5 3 6
1 2 -6 -4 -6 -2 -20 6 -29 12 -15 11 -16 -4 -3 -22 17 -24 -2 -2 -23 13 -14
14 -16 0 -16 -8 0 -18 -4 -21 -10 -3 -5 0 -8 7 -5 10 4 13 -7 12 -42 -1 -27 4
-55 10 -63 10 -13 9 -13 -6 -1 -22 17 -24 -2 -2 -23 13 -14 14 -16 0 -16 -8 0
-18 -4 -21 -10 -3 -5 0 -7 9 -4 13 5 14 1 6 -25 -7 -26 -6 -31 8 -32 15 -1 14
-2 -1 -6 -14 -4 -16 -8 -6 -19 6 -8 8 -14 3 -14 -5 0 -9 -13 -9 -29 -1 -16 3
-27 9 -24 5 3 6 1 2 -6 -4 -6 -2 -20 6 -29 12 -15 11 -16 -4 -3 -22 17 -24 -2
-2 -23 13 -14 14 -16 0 -16 -8 0 -18 -4 -21 -10 -3 -5 0 -7 9 -4 13 5 14 1 6
-25 -7 -26 -6 -31 8 -32 15 -1 14 -2 -1 -6 -14 -4 -16 -8 -6 -19 6 -8 8 -14 3
-14 -5 0 -9 -13 -9 -29 -1 -16 3 -27 9 -24 5 3 6 1 2 -6 -4 -6 -2 -20 6 -29
12 -15 11 -16 -4 -3 -22 17 -24 -2 -2 -23 13 -14 14 -16 0 -16 -8 0 -18 -4
-21 -10 -3 -5 0 -7 8 -4 11 4 12 -5 7 -46 -5 -41 -4 -50 9 -51 12 0 11 -2 -3
-8 -17 -7 -17 -8 -2 -24 15 -14 15 -17 2 -17 -8 0 -18 -4 -21 -10 -3 -5 0 -7
9 -4 13 5 14 1 6 -25 -7 -26 -6 -31 8 -32 15 -1 14 -2 -1 -6 -14 -4 -16 -8 -6
-19 6 -8 8 -14 3 -14 -5 0 -9 -13 -9 -29 -1 -16 3 -27 9 -24 5 3 6 1 2 -6 -4
-6 -2 -20 6 -29 12 -15 11 -16 -4 -3 -22 17 -24 -2 -2 -23 13 -14 14 -16 0
-16 -8 0 -18 -4 -21 -10 -3 -5 0 -7 9 -4 13 5 14 1 6 -25 -7 -26 -6 -31 8 -32
15 -1 14 -2 -1 -6 -14 -4 -16 -8 -6 -19 6 -8 8 -14 3 -14 -5 0 -9 -13 -9 -29
-1 -16 3 -27 9 -24 5 3 6 1 2 -6 -4 -6 -2 -20 6 -29 12 -15 11 -16 -4 -3 -22
17 -24 -2 -2 -23 13 -14 14 -16 0 -16 -8 0 -18 -4 -21 -10 -3 -5 0 -8 7 -5 10
4 13 -7 12 -42 -1 -27 4 -55 10 -63 10 -13 9 -13 -6 -1 -22 17 -24 -2 -2 -23
13 -14 14 -16 0 -16 -8 0 -18 -4 -21 -10 -3 -5 0 -7 9 -4 13 5 14 1 6 -25 -7
-26 -6 -31 8 -32 15 -1 14 -2 -1 -6 -14 -4 -16 -8 -6 -19 6 -8 8 -14 3 -14 -5
0 -9 -13 -9 -29 -1 -16 3 -27 9 -24 5 3 6 1 2 -6 -4 -6 -2 -20 6 -29 12 -15
11 -16 -4 -3 -22 17 -24 -2 -2 -23 13 -14 14 -16 0 -16 -8 0 -18 -4 -21 -10
-3 -5 0 -7 9 -4 13 5 14 1 6 -25 -7 -26 -6 -31 8 -32 15 -1 14 -2 -1 -6 -14
-4 -16 -8 -6 -19 6 -8 7 -14 2 -14 -5 0 -9 -9 -9 -20 0 -11 4 -20 8 -20 4 0 8
-5 8 -11 0 -5 -4 -8 -9 -5 -4 3 -6 -6 -3 -19 3 -17 0 -25 -9 -25 -8 -1 -3 -7
11 -15 23 -13 23 -14 5 -15 -11 -1 -15 -4 -8 -6 7 -3 9 -14 4 -32 -9 -33 -4
-54 12 -46 7 3 5 -1 -5 -8 -12 -11 -14 -18 -6 -32 8 -14 7 -17 -1 -12 -6 4
-14 0 -17 -9 -5 -12 -10 -13 -20 -4 -10 8 -12 7 -9 -9 3 -15 -1 -19 -15 -15
-12 3 -22 -3 -29 -16 -11 -20 -41 -24 -58 -8 -11 12 -11 47 1 40 6 -4 5 0 -2
9 -7 8 -9 24 -5 33 4 11 2 16 -4 12 -5 -3 -10 0 -10 7 0 9 7 12 16 8 14 -5 14
-3 3 10 -9 12 -10 18 -2 23 8 5 6 13 -5 25 -11 12 -13 20 -5 25 6 4 8 21 5 43
-5 28 -4 33 4 22 9 -13 11 -12 8 5 -1 11 -6 25 -10 32 -4 6 -4 19 0 29 4 10 2
15 -4 11 -5 -3 -10 0 -10 7 0 9 7 12 16 8 14 -5 14 -3 2 11 -7 9 -10 17 -6 17
4 0 1 8 -6 17 -12 15 -12 16 4 10 13 -5 16 -3 10 6 -11 18 -10 87 1 87 6 0 5
4 -3 9 -8 5 -16 17 -17 25 -1 9 2 13 8 10 6 -4 8 1 3 15 -4 14 -2 21 7 21 9 1
7 4 -4 10 -10 6 -14 18 -11 30 3 11 10 17 17 13 6 -3 3 3 -7 14 -18 21 -18 22
0 32 15 9 15 10 2 11 -9 0 -16 7 -16 15 0 8 4 12 9 9 10 -6 6 25 -5 44 -5 8
-2 12 8 12 9 0 13 5 10 10 -4 6 -11 8 -16 5 -5 -4 -5 4 1 19 7 19 6 26 -3 26
-6 0 -4 5 6 11 18 10 18 11 0 32 -17 20 -17 20 1 13 16 -5 17 -4 6 9 -7 9 -10
18 -7 22 4 3 1 13 -6 21 -10 13 -9 14 2 8 10 -7 12 -3 6 13 -4 14 -2 21 7 21
10 0 10 2 -1 9 -8 5 -16 17 -17 25 -1 9 2 13 8 10 6 -4 8 1 3 15 -4 14 -2 21
7 21 9 1 7 4 -4 10 -10 6 -14 18 -11 30 3 11 10 17 17 13 6 -3 3 3 -7 14 -18
21 -18 22 0 32 17 10 17 10 -2 11 -17 0 -17 2 -5 10 13 9 13 10 0 10 -9 0 -11
3 -5 8 12 8 13 22 2 40 -5 8 -3 12 8 12 9 0 13 5 10 10 -4 6 -11 8 -16 5 -5
-4 -5 4 1 19 7 19 6 26 -3 26 -8 0 -7 3 2 9 16 11 22 49 9 57 -5 3 -6 15 -2
26 4 14 2 18 -5 14 -7 -5 -9 -1 -5 8 3 9 11 13 18 9 6 -3 3 3 -7 14 -18 21
-18 22 0 32 17 10 17 10 -2 11 -17 0 -17 2 -5 10 13 9 13 10 0 10 -12 0 -12 2
-2 9 19 11 19 15 3 34 -12 15 -11 17 3 17 10 0 14 5 11 10 -4 6 -12 7 -18 4
-8 -5 -8 -3 1 7 14 15 17 33 4 25 -5 -3 -9 1 -9 8 0 9 7 12 16 8 13 -5 14 -3
4 9 -7 9 -9 20 -3 29 5 9 5 19 -2 27 -6 8 -8 16 -5 20 4 3 1 13 -6 21 -10 13
-9 14 2 8 10 -7 12 -3 6 13 -4 14 -2 21 7 21 10 0 10 2 -1 9 -8 5 -16 17 -17
25 -1 9 2 13 8 10 6 -4 8 1 3 15 -4 14 -2 21 7 21 9 1 7 4 -4 10 -10 6 -14 18
-11 30 3 11 10 17 17 13 6 -3 3 3 -7 14 -18 21 -18 22 0 32 15 9 15 10 2 11
-9 0 -16 7 -16 15 0 8 4 12 9 9 10 -6 6 25 -5 44 -5 8 -2 12 8 12 9 0 13 5 10
10 -4 6 -10 8 -15 5 -10 -6 -8 15 3 33 5 7 3 12 -5 12 -9 1 -8 4 3 10 9 5 15
19 13 32 -1 13 -3 23 -4 23 -1 0 -3 19 -4 43 -1 24 2 42 8 42 6 0 5 4 -3 9 -8
5 -16 17 -17 25 -1 9 2 13 8 10 6 -4 8 1 3 15 -4 14 -2 21 7 21 9 1 7 4 -4 10
-18 11 -13 54 6 43 6 -3 3 2 -6 12 -12 13 -14 24 -7 41 6 17 5 24 -4 24 -8 0
-8 3 -2 8 12 8 13 22 2 40 -5 8 -3 12 8 12 9 0 13 5 10 10 -4 6 -12 8 -18 4
-7 -3 -3 2 7 10 16 13 16 16 5 16 -9 0 -16 7 -16 15 0 8 4 12 8 9 15 -9 16 22
0 40 -15 18 -15 19 3 12 14 -5 16 -3 9 6 -15 20 -15 71 0 62 6 -4 4 2 -6 13
-18 21 -18 22 0 32 17 10 17 10 -2 11 -17 0 -17 2 -5 10 13 9 13 10 0 10 -12
0 -12 2 -2 9 15 9 15 20 0 39 -8 9 -6 12 6 12 10 0 14 5 11 10 -4 6 -11 8 -16
5 -5 -4 -5 4 1 19 7 19 6 26 -3 26 -7 0 -6 4 4 10 9 5 15 19 13 32 -1 13 -3
23 -4 23 -1 0 -3 19 -4 43 -1 24 2 42 8 42 6 0 5 4 -3 9 -8 5 -16 17 -17 25
-1 9 2 13 8 10 6 -4 8 1 3 15 -4 14 -2 21 7 21 9 1 7 4 -4 10 -18 11 -13 54 6
43 6 -3 3 2 -6 12 -12 13 -14 24 -7 41 6 17 5 24 -4 24 -8 0 -8 3 -2 8 12 8
13 22 2 40 -5 8 -3 12 8 12 9 0 13 5 10 10 -4 6 -11 8 -16 5 -5 -4 -5 4 1 19
7 19 6 26 -3 26 -7 0 -6 4 4 10 13 8 17 38 9 60 -7 17 -4 77 5 89 7 11 7 13
-1 8 -7 -4 -14 2 -17 13 -3 12 -1 18 5 14 6 -4 8 1 3 15 -4 14 -2 21 7 21 9 1
7 4 -4 10 -10 6 -14 18 -11 30 3 11 10 17 17 13 6 -3 3 3 -7 14 -18 21 -18 22
0 32 17 10 17 10 -2 11 -17 0 -17 2 -5 10 13 9 13 10 0 10 -12 0 -12 2 -2 9
15 9 15 20 0 39 -8 9 -6 12 6 12 10 0 14 5 11 10 -4 6 -12 8 -18 4 -7 -3 -3 2
7 10 20 16 20 16 0 16 -16 0 -17 2 -4 10 13 9 13 10 0 10 -11 1 -11 3 3 11 18
10 18 12 1 30 -16 18 -16 19 2 19 12 0 15 3 7 8 -13 8 -12 29 1 51 7 11 5 13
-6 8 -14 -5 -15 -1 -7 26 11 39 11 39 0 33 -5 -4 -7 3 -4 15 4 13 11 18 21 14
11 -4 12 -2 4 8 -9 10 -8 14 3 14 8 0 15 -5 15 -10z m-709 -104 c12 -15 12
-16 -1 -8 -13 8 -13 7 -1 -8 7 -9 9 -17 4 -17 -12 0 -15 -48 -2 -55 7 -5 6
-11 -1 -20 -7 -8 -9 -19 -5 -25 3 -5 1 -10 -4 -10 -6 0 -11 -4 -11 -10 0 -5 5
-9 11 -7 6 1 13 -6 14 -16 3 -15 1 -16 -12 -5 -13 11 -13 7 2 -22 17 -34 17
-34 0 -20 -17 14 -17 14 -6 -7 6 -13 8 -23 4 -23 -4 0 -1 -5 7 -10 10 -6 11
-10 3 -10 -15 0 -13 -21 2 -32 6 -5 5 -8 -2 -8 -7 0 -10 -7 -6 -17 5 -12 3
-14 -8 -9 -8 4 -6 1 4 -7 12 -10 14 -16 6 -19 -8 -3 -9 -9 -4 -18 14 -23 13
-49 -2 -62 -11 -9 -11 -14 2 -28 12 -14 13 -20 4 -26 -8 -5 -10 -3 -4 6 6 9 4
11 -5 5 -10 -6 -9 -11 4 -21 13 -9 14 -13 4 -18 -11 -5 -11 -7 0 -12 10 -5 9
-9 -5 -20 -10 -8 -13 -14 -8 -13 23 3 29 -2 15 -12 -12 -8 -12 -12 -2 -16 10
-4 9 -8 -4 -17 -13 -10 -14 -15 -4 -21 9 -6 11 -4 5 5 -5 9 -4 11 4 6 9 -6 9
-11 0 -22 -9 -11 -8 -14 2 -14 12 0 12 -2 1 -9 -8 -4 -14 -12 -14 -16 0 -4 6
-12 14 -16 10 -7 10 -9 0 -9 -14 0 -12 -21 3 -32 6 -5 5 -8 -2 -8 -7 0 -13 -7
-13 -15 0 -8 6 -15 13 -15 8 0 8 -3 -2 -9 -8 -5 -11 -16 -8 -24 3 -9 1 -18 -6
-21 -7 -2 -3 -5 7 -5 18 -1 18 -3 -4 -26 l-23 -25 24 -9 c13 -5 18 -10 10 -10
-10 -1 -11 -4 -2 -15 8 -10 9 -16 1 -21 -5 -3 -10 -11 -10 -16 0 -6 6 -7 13
-3 8 5 8 2 -2 -9 -11 -14 -11 -17 0 -17 8 0 6 -5 -6 -13 -14 -11 -15 -16 -5
-22 9 -6 11 -4 5 5 -6 9 -4 11 4 5 9 -5 10 -10 2 -18 -15 -15 -14 -30 2 -21 6
4 3 -3 -7 -15 -20 -22 -20 -22 0 -15 16 6 17 5 7 -7 -7 -7 -13 -17 -13 -22 0
-4 6 -5 13 -1 8 5 8 2 -2 -9 -11 -14 -11 -17 0 -17 12 0 12 -2 1 -9 -8 -4 -14
-12 -14 -16 0 -4 6 -12 14 -16 10 -7 10 -9 1 -9 -15 0 -13 -21 2 -32 6 -5 5
-8 -2 -8 -7 0 -13 -7 -13 -15 0 -8 6 -15 13 -16 10 0 10 -2 0 -6 -7 -2 -13
-11 -13 -19 0 -8 6 -14 13 -14 9 0 9 -2 -1 -9 -8 -4 -14 -12 -14 -16 0 -4 6
-12 14 -16 10 -7 10 -9 1 -9 -15 0 -13 -21 2 -32 6 -5 5 -8 -2 -8 -7 0 -13 -7
-13 -15 0 -8 6 -15 13 -15 8 0 8 -3 -2 -9 -8 -5 -11 -16 -8 -24 3 -9 1 -18 -6
-21 -7 -2 -3 -5 7 -5 18 -1 18 -3 -4 -26 l-23 -25 24 -9 c13 -5 18 -10 10 -10
-10 -1 -11 -4 -2 -15 8 -10 9 -16 1 -21 -5 -3 -10 -11 -10 -16 0 -6 6 -7 13
-3 8 5 8 2 -2 -9 -11 -14 -11 -17 0 -17 8 0 6 -5 -6 -13 -14 -11 -15 -16 -5
-22 9 -6 11 -4 5 5 -6 9 -4 11 4 5 9 -5 10 -10 2 -18 -15 -15 -14 -30 2 -21 6
4 3 -3 -7 -15 -20 -22 -20 -22 0 -15 16 6 17 5 7 -7 -7 -7 -13 -17 -13 -22 0
-4 6 -5 13 -1 8 5 8 2 -2 -9 -11 -14 -11 -17 0 -17 12 0 12 -2 1 -9 -8 -4 -14
-12 -14 -16 0 -4 6 -12 14 -16 10 -7 10 -9 0 -9 -14 0 -12 -21 3 -32 6 -5 5
-8 -2 -8 -7 0 -13 -7 -13 -15 0 -8 5 -15 11 -15 6 0 3 -8 -6 -17 -16 -16 -16
-17 -1 -29 12 -8 13 -13 5 -16 -8 -3 -9 -9 -4 -18 14 -23 13 -49 -2 -62 -11
-9 -11 -14 2 -28 12 -14 13 -20 4 -26 -8 -5 -10 -3 -4 6 6 9 4 11 -5 5 -10 -6
-9 -11 4 -21 13 -9 14 -13 4 -18 -11 -5 -11 -7 0 -12 10 -5 9 -9 -5 -20 -10
-8 -13 -14 -8 -13 23 3 29 -2 15 -12 -12 -8 -12 -12 -2 -16 10 -4 9 -8 -4 -17
-13 -10 -14 -15 -4 -21 9 -6 11 -4 5 5 -5 9 -4 11 4 6 9 -6 9 -11 0 -22 -9
-11 -8 -14 2 -14 12 0 12 -2 1 -9 -8 -4 -14 -12 -14 -16 0 -4 6 -12 14 -16 10
-7 10 -9 0 -9 -14 0 -12 -21 3 -32 6 -5 5 -8 -2 -8 -7 0 -13 -7 -13 -15 0 -8
6 -15 13 -15 8 0 8 -3 -2 -9 -8 -5 -11 -16 -8 -24 3 -9 1 -18 -6 -21 -7 -2 -3
-5 7 -5 18 -1 18 -3 -4 -26 l-23 -25 24 -9 c13 -5 18 -10 10 -10 -10 -1 -11
-4 -2 -15 8 -10 9 -16 1 -21 -5 -3 -10 -11 -10 -16 0 -6 6 -7 13 -3 8 5 8 2
-2 -9 -11 -14 -11 -17 0 -17 8 0 6 -5 -6 -13 -14 -11 -15 -16 -5 -22 9 -6 11
-4 5 5 -6 9 -4 11 4 5 9 -5 10 -10 2 -18 -15 -15 -14 -30 2 -21 6 4 3 -3 -7
-15 -20 -22 -20 -22 0 -15 16 6 17 5 7 -7 -7 -7 -13 -17 -13 -22 0 -4 6 -5 13
-1 8 5 8 2 -2 -9 -11 -14 -11 -17 0 -17 12 0 12 -2 1 -9 -17 -11 -17 -21 0
-32 10 -7 10 -9 0 -9 -14 0 -12 -21 3 -32 6 -5 5 -8 -2 -8 -7 0 -13 -7 -13
-15 0 -8 5 -15 11 -15 6 0 3 -8 -6 -17 -16 -16 -16 -17 -1 -29 12 -8 13 -13 5
-16 -8 -3 -9 -9 -4 -18 14 -23 13 -49 -2 -62 -11 -9 -11 -14 2 -28 12 -14 13
-20 4 -26 -8 -5 -10 -3 -4 6 6 9 4 11 -5 5 -10 -6 -9 -11 4 -21 13 -9 14 -13
4 -18 -11 -5 -11 -7 0 -12 10 -5 9 -9 -5 -20 -10 -8 -13 -14 -8 -13 23 3 29
-2 15 -12 -12 -8 -12 -12 -2 -16 10 -4 9 -8 -4 -17 -13 -10 -14 -15 -4 -21 9
-6 11 -4 5 5 -5 9 -4 11 4 6 9 -6 9 -11 0 -22 -9 -11 -8 -14 2 -14 12 0 12 -2
1 -9 -17 -11 -17 -21 0 -32 10 -7 10 -9 1 -9 -15 0 -13 -21 2 -32 6 -5 5 -8
-2 -8 -7 0 -13 -7 -13 -15 0 -8 6 -15 13 -15 8 0 8 -3 -2 -9 -8 -5 -11 -16 -8
-24 3 -9 1 -18 -6 -21 -7 -2 -3 -5 7 -5 18 -1 18 -3 -4 -26 l-23 -25 24 -9
c13 -5 17 -10 10 -10 -12 -1 -12 -4 -3 -13 9 -9 9 -15 0 -26 -9 -10 -9 -18 0
-32 9 -14 8 -21 -4 -31 -13 -10 -12 -14 3 -32 10 -11 12 -17 6 -13 -7 4 -13 3
-13 -1 0 -5 6 -15 13 -22 10 -11 10 -13 0 -7 -16 9 -17 -10 -3 -19 8 -5 8 -11
0 -20 -14 -16 -10 -95 4 -95 7 0 8 -3 1 -8 -14 -10 -17 -32 -4 -32 5 0 7 -5 4
-10 -4 -6 -10 -8 -15 -5 -5 3 -12 0 -16 -6 -4 -7 -3 -9 4 -5 6 3 13 2 16 -3
14 -22 -28 -2 -51 25 -14 16 -30 28 -35 26 -6 -2 -8 4 -5 13 4 8 2 15 -4 15
-6 0 -7 5 -4 10 4 6 12 7 18 4 8 -5 8 -3 0 7 -16 16 -17 33 -2 23 8 -4 7 0 -1
15 -6 12 -8 31 -4 43 4 14 2 18 -5 14 -7 -5 -9 -1 -5 8 3 9 11 13 18 9 8 -4 8
-2 -1 7 -6 7 -9 19 -6 28 4 10 2 13 -5 8 -8 -5 -10 -2 -6 9 4 9 11 12 18 8 7
-5 5 -1 -4 7 -15 13 -15 16 3 31 17 13 17 16 4 16 -9 0 -13 -5 -10 -10 3 -6 1
-7 -6 -3 -8 5 -9 12 -2 20 10 12 10 41 -1 52 -4 3 0 21 8 39 8 20 10 36 4 40
-5 3 -6 13 -3 22 4 11 3 14 -5 9 -8 -5 -10 -2 -6 8 3 9 11 13 18 10 6 -3 3 1
-6 9 -10 8 -15 17 -11 20 3 4 13 1 21 -6 13 -11 14 -9 2 10 -8 12 -19 19 -25
15 -5 -3 -5 1 2 9 13 16 12 36 -1 58 -6 10 -5 12 2 7 7 -4 12 -2 12 3 0 6 -5
11 -11 11 -5 0 -7 5 -4 10 4 6 10 8 15 5 5 -3 12 0 16 6 4 8 3 9 -4 5 -7 -4
-12 -2 -12 4 0 6 -5 8 -11 5 -6 -4 -5 3 3 15 11 19 11 23 0 27 -10 4 -9 8 4
17 13 10 14 15 4 21 -9 6 -11 4 -5 -5 5 -9 4 -11 -4 -6 -8 5 -9 12 -2 20 12
15 11 77 -1 70 -5 -4 -4 4 4 16 11 19 11 23 0 27 -10 4 -9 8 4 17 13 10 14 15
4 21 -9 6 -11 4 -5 -5 6 -9 4 -11 -4 -5 -9 5 -10 10 -2 18 14 14 15 50 1 42
-6 -3 -7 1 -4 9 3 9 11 13 18 10 6 -3 3 1 -6 9 -10 8 -15 17 -11 20 3 4 13 1
21 -6 13 -11 14 -9 2 10 -8 12 -19 19 -25 15 -5 -3 -5 1 2 9 12 15 12 43 1 55
-4 3 0 21 8 39 9 23 10 36 3 40 -7 5 -7 11 1 20 8 9 8 15 0 20 -6 3 -8 11 -5
16 4 5 1 9 -5 9 -6 0 -8 5 -5 10 4 6 11 8 16 5 5 -3 6 1 3 9 -3 9 -11 13 -18
9 -7 -5 -7 -2 1 8 12 15 12 43 1 55 -4 3 0 21 8 39 8 20 10 36 4 40 -5 3 -6
13 -3 22 4 11 3 14 -5 9 -8 -5 -10 -2 -6 8 3 9 11 13 18 10 6 -3 3 1 -6 9 -10
8 -15 17 -11 20 3 4 13 1 21 -6 13 -11 14 -9 2 10 -8 12 -19 19 -25 15 -5 -3
-5 1 2 9 13 16 12 36 -1 58 -6 10 -5 12 2 7 7 -4 12 -2 12 3 0 6 -5 11 -11 11
-5 0 -7 5 -4 10 4 6 10 8 15 5 5 -3 12 0 16 6 4 8 3 9 -4 5 -7 -4 -12 -2 -12
4 0 6 -5 8 -11 5 -6 -4 -5 3 3 15 11 19 11 23 0 27 -10 4 -9 8 4 17 13 10 14
15 4 21 -9 6 -11 4 -5 -5 5 -9 4 -11 -4 -6 -8 5 -9 12 -2 20 12 15 11 77 -1
70 -5 -4 -4 4 4 16 11 19 11 23 0 27 -10 4 -9 8 4 17 13 10 14 15 4 21 -9 6
-11 4 -5 -5 6 -9 4 -11 -4 -5 -9 5 -10 10 -2 18 14 14 15 50 1 42 -6 -3 -7 1
-4 9 3 9 11 13 18 10 6 -3 3 1 -6 9 -10 8 -15 17 -11 20 3 4 13 1 21 -6 13
-11 14 -9 2 10 -8 12 -19 19 -25 15 -5 -3 -5 1 2 9 12 15 12 43 1 55 -4 3 0
21 8 39 9 23 10 36 3 40 -7 5 -7 11 1 20 8 9 8 15 0 20 -6 3 -8 11 -5 16 4 5
1 9 -5 9 -6 0 -8 5 -5 10 4 6 11 8 16 5 5 -3 6 1 3 9 -3 9 -11 13 -18 9 -7 -5
-7 -2 1 8 12 15 12 43 1 55 -4 3 0 21 8 39 8 20 10 36 4 40 -5 3 -6 13 -3 22
4 11 3 14 -5 9 -8 -5 -10 -2 -6 8 3 9 11 13 18 10 6 -3 3 1 -6 9 -10 8 -15 17
-11 20 3 4 13 1 21 -6 13 -11 14 -9 2 10 -8 12 -19 19 -25 15 -5 -3 -5 1 2 9
13 16 12 36 -1 58 -6 10 -5 12 2 7 7 -4 12 -1 12 9 0 9 -4 13 -10 10 -6 -3 -7
1 -4 9 3 9 11 13 18 10 6 -3 3 1 -6 9 -10 8 -15 17 -11 20 3 4 13 1 21 -6 13
-11 14 -9 2 10 -8 12 -19 19 -25 15 -5 -3 -5 1 2 9 12 15 12 43 1 55 -4 3 0
21 8 39 9 23 10 36 3 40 -7 5 -7 11 1 20 8 9 8 15 0 20 -6 3 -8 11 -5 16 4 5
1 9 -5 9 -6 0 -8 5 -5 10 4 6 11 8 16 5 5 -3 6 1 3 9 -3 9 -11 13 -18 9 -7 -5
-7 -2 1 8 12 15 12 43 1 55 -4 3 0 21 8 39 8 20 10 36 4 40 -5 3 -6 13 -3 22
4 11 3 14 -5 9 -8 -5 -10 -2 -6 8 3 9 11 13 18 10 6 -3 3 1 -6 9 -10 8 -15 17
-11 20 3 4 13 1 21 -6 13 -11 14 -9 2 10 -8 12 -19 19 -25 15 -5 -3 -5 1 2 9
13 16 12 36 -1 58 -6 10 -5 12 2 7 7 -4 12 -2 12 3 0 6 -5 11 -11 11 -5 0 -7
5 -4 10 4 6 10 8 15 5 5 -3 12 0 16 6 4 8 3 9 -4 5 -7 -4 -12 -2 -12 4 0 6 -5
8 -11 5 -6 -4 -5 3 3 15 11 19 11 23 0 27 -10 4 -9 8 4 17 13 10 14 15 4 21
-9 6 -11 4 -5 -5 5 -9 4 -11 -4 -6 -8 5 -9 12 -2 20 12 15 11 77 -1 70 -5 -4
-4 4 4 16 11 19 11 23 0 27 -10 4 -9 8 4 17 13 10 14 15 4 21 -9 6 -11 4 -5
-5 5 -9 4 -11 -4 -6 -8 5 -7 13 4 29 13 19 13 23 -1 38 -12 13 -12 19 -3 25 8
5 10 3 4 -7 -5 -8 -4 -11 0 -6 12 11 13 47 2 54 -6 4 -7 1 -2 -7 5 -9 4 -11
-4 -6 -8 5 -9 12 -2 20 11 13 10 34 -3 55 -6 9 -5 12 1 8 6 -4 13 2 16 14 5
17 3 18 -10 7 -14 -11 -15 -10 -7 12 4 14 8 35 9 47 0 12 4 19 10 15 6 -4 3 0
-7 10 -22 20 -23 32 -3 24 8 -3 14 -2 14 2 -4 22 3 30 22 27 18 -4 19 -2 7 12
-8 10 -8 14 -1 10 6 -4 14 -3 18 3 9 15 21 12 36 -7z m1001 -68 c8 -7 9 -5 3
5 -4 8 4 2 18 -15 17 -20 22 -34 16 -42 -7 -7 -6 -14 2 -18 8 -6 7 -10 -2 -16
-11 -7 -11 -9 1 -9 13 0 13 -1 0 -10 -13 -9 -13 -10 0 -10 13 0 13 -1 0 -10
-12 -8 -12 -10 -1 -10 11 0 11 -3 1 -15 -10 -12 -10 -15 0 -15 9 0 9 -4 -1
-17 -12 -15 -12 -16 1 -8 13 8 13 7 1 -8 -11 -14 -11 -17 0 -18 11 0 11 -2 1
-6 -10 -4 -10 -8 -1 -19 9 -11 9 -14 -1 -14 -10 0 -10 -3 0 -15 10 -12 10 -15
-1 -16 -11 0 -11 -2 -1 -6 10 -4 10 -8 1 -19 -9 -11 -9 -14 0 -14 7 0 9 -5 4
-12 -10 -17 -13 -39 -4 -34 4 3 6 -5 5 -17 -1 -12 -3 -22 -4 -22 -7 0 -5 -47
2 -51 5 -3 4 -12 -3 -20 -9 -11 -8 -14 2 -14 12 0 12 -2 0 -9 -10 -6 -10 -10
-1 -16 9 -6 9 -10 -1 -17 -11 -7 -11 -11 -2 -14 8 -4 9 -13 3 -29 -5 -14 -6
-27 -1 -29 9 -6 8 -36 -2 -53 -4 -6 -2 -15 4 -19 8 -4 7 -9 -2 -16 -11 -7 -11
-11 -2 -15 9 -3 10 -10 3 -24 -8 -14 -7 -19 2 -20 10 0 10 -2 1 -6 -9 -3 -10
-10 -3 -22 5 -10 6 -21 3 -25 -12 -12 -12 -36 0 -36 8 0 7 -3 -2 -9 -10 -6
-10 -10 -1 -16 8 -5 6 -11 -7 -22 -10 -8 -13 -12 -7 -9 16 8 25 -29 11 -43 -8
-8 -8 -11 1 -11 10 0 10 -5 2 -20 -8 -15 -8 -20 2 -21 10 0 10 -2 1 -6 -9 -3
-10 -10 -3 -23 6 -10 6 -21 2 -24 -10 -6 -9 -36 1 -53 4 -6 2 -15 -4 -19 -8
-4 -7 -9 2 -15 12 -7 12 -9 0 -9 -10 0 -11 -3 -2 -14 9 -11 9 -15 -1 -20 -10
-4 -10 -8 -1 -12 8 -3 9 -15 3 -34 -5 -18 -5 -32 1 -36 6 -4 6 -11 -2 -20 -9
-11 -8 -14 2 -14 12 0 12 -2 0 -9 -10 -6 -10 -10 -1 -16 9 -6 9 -10 -1 -17
-11 -7 -11 -11 -2 -15 9 -3 10 -10 3 -24 -8 -14 -7 -19 2 -19 8 0 9 -3 3 -8
-14 -10 -17 -32 -4 -32 6 0 7 -5 2 -12 -11 -18 -11 -31 0 -45 6 -9 5 -13 -2
-13 -7 0 -9 -5 -5 -12 10 -16 10 -50 0 -66 -4 -7 -2 -12 4 -12 8 0 8 -6 0 -20
-8 -15 -8 -20 2 -21 10 0 10 -2 1 -6 -9 -3 -10 -10 -3 -23 6 -10 6 -21 2 -24
-10 -6 -9 -36 1 -53 4 -6 2 -15 -4 -19 -8 -4 -7 -9 2 -15 12 -7 12 -9 0 -9
-10 0 -11 -3 -2 -14 9 -11 9 -15 -1 -20 -10 -4 -10 -8 -1 -12 8 -3 9 -15 3
-34 -5 -18 -5 -32 1 -36 6 -4 6 -11 -2 -20 -9 -11 -8 -14 2 -14 12 0 12 -2 0
-9 -10 -6 -10 -10 -1 -16 9 -6 9 -10 -1 -17 -11 -7 -11 -11 -2 -15 9 -3 10
-10 3 -24 -8 -14 -7 -19 2 -20 10 0 10 -2 1 -6 -9 -3 -10 -10 -3 -22 5 -10 6
-21 3 -25 -12 -12 -12 -36 0 -36 8 0 7 -3 -2 -9 -10 -6 -10 -10 -1 -16 8 -5 6
-11 -7 -22 -10 -8 -13 -12 -7 -9 16 8 25 -29 11 -43 -8 -8 -8 -11 1 -11 10 0
10 -5 2 -20 -8 -15 -8 -20 2 -21 10 0 10 -2 1 -6 -9 -3 -10 -10 -3 -23 6 -11
6 -21 1 -24 -8 -5 -8 -27 -1 -46 6 -14 4 -36 -3 -47 -4 -6 -3 -14 4 -18 8 -6
7 -10 -2 -17 -11 -7 -11 -11 -2 -14 8 -4 9 -13 3 -29 -5 -14 -6 -27 -1 -29 9
-6 8 -36 -2 -53 -4 -6 -2 -15 4 -19 8 -4 7 -9 -2 -16 -11 -7 -11 -11 -2 -15 9
-3 10 -10 3 -24 -8 -14 -7 -19 2 -20 10 0 10 -2 1 -6 -9 -3 -10 -10 -3 -22 5
-10 6 -21 3 -25 -12 -12 -12 -36 0 -36 8 0 7 -3 -2 -9 -10 -6 -10 -10 -1 -16
8 -5 6 -11 -7 -22 -10 -8 -13 -12 -7 -9 16 8 25 -29 11 -43 -8 -8 -8 -11 1
-11 10 0 10 -5 2 -20 -8 -15 -8 -20 2 -21 10 0 10 -2 1 -6 -9 -3 -10 -10 -3
-23 6 -12 6 -21 1 -25 -10 -5 -7 -36 4 -54 3 -5 0 -13 -6 -17 -8 -4 -7 -9 2
-15 12 -7 12 -9 0 -9 -10 0 -11 -3 -2 -14 9 -11 9 -15 -1 -20 -10 -5 -10 -7
-1 -12 8 -4 9 -13 3 -29 -5 -14 -6 -27 -1 -29 9 -6 8 -36 -2 -53 -4 -6 -2 -15
4 -19 8 -4 7 -9 -2 -16 -11 -7 -11 -11 -2 -15 9 -3 10 -10 3 -24 -8 -14 -7
-19 2 -19 10 0 10 -2 1 -8 -8 -5 -9 -13 -3 -22 6 -9 4 -20 -3 -29 -9 -11 -9
-15 2 -19 11 -4 11 -6 0 -13 -12 -7 -12 -9 0 -9 11 0 11 -3 1 -15 -7 -8 -8
-15 -3 -15 5 0 9 -9 9 -20 0 -11 -5 -20 -10 -20 -6 0 -5 -5 1 -11 7 -7 8 -20
3 -34 -5 -14 -4 -27 3 -34 8 -8 7 -11 -3 -11 -11 0 -11 -3 -2 -12 9 -9 9 -15
-1 -26 -9 -12 -9 -16 1 -20 10 -3 9 -7 -4 -16 -13 -10 -14 -15 -4 -21 9 -6 11
-4 5 6 -5 8 -4 10 0 6 12 -10 15 -37 5 -37 -5 0 -7 -9 -5 -20 2 -11 0 -18 -6
-15 -5 4 -9 -1 -9 -9 0 -16 -29 -36 -52 -36 -17 0 -21 42 -5 52 9 6 9 8 -1 8
-8 0 -10 5 -5 13 11 18 13 38 2 31 -5 -3 -9 2 -9 11 0 10 5 13 12 9 7 -5 8 -3
2 7 -13 21 -14 39 -1 39 7 0 6 5 -3 11 -12 9 -13 12 -1 16 11 5 11 7 0 15 -11
8 -12 11 -1 15 10 4 9 8 -5 18 -17 13 -17 14 0 21 15 5 16 9 5 15 -11 7 -10
11 2 19 12 8 12 10 1 10 -11 0 -11 3 0 17 10 11 10 14 2 9 -7 -4 -13 -3 -13 3
0 5 4 12 8 15 10 6 9 62 -1 72 -4 4 -1 14 6 22 9 13 9 14 0 8 -9 -5 -13 0 -13
14 0 13 4 18 11 15 6 -4 5 3 -3 15 -11 19 -11 23 1 28 11 4 11 6 0 13 -12 7
-12 12 -1 30 8 11 9 18 4 15 -6 -3 -12 1 -15 9 -4 10 -1 12 11 8 14 -5 15 -3
5 8 -16 16 -17 43 -2 34 6 -4 5 3 -3 15 -11 19 -11 23 1 28 11 4 11 6 0 13
-12 7 -12 12 -1 30 8 11 9 18 3 14 -6 -3 -11 1 -11 10 0 9 5 13 11 10 6 -4 5
3 -3 15 -11 19 -11 23 1 28 11 4 11 6 0 14 -12 8 -12 10 0 15 11 5 11 7 0 14
-12 8 -12 10 -1 18 11 6 10 10 -4 15 -13 5 -15 9 -6 18 15 15 16 32 2 23 -5
-3 -10 -1 -10 4 0 6 5 11 12 11 6 0 8 3 5 7 -4 3 -1 13 6 21 9 13 9 14 0 8 -7
-4 -13 -3 -13 3 0 5 4 12 8 15 10 6 9 62 -1 72 -4 4 -1 14 6 22 9 13 9 14 0 8
-9 -5 -13 0 -13 14 0 13 4 18 11 15 6 -4 5 3 -3 15 -11 19 -11 23 1 28 11 4
11 6 0 13 -12 7 -12 12 -1 30 8 11 9 18 3 14 -6 -3 -11 1 -11 10 0 10 5 14 13
9 10 -6 10 -4 0 7 -16 16 -17 43 -2 34 6 -4 5 3 -3 15 -11 19 -11 23 1 28 11
4 11 6 0 13 -12 7 -12 12 -1 30 8 11 9 18 4 15 -6 -3 -12 1 -15 9 -4 10 -1 12
10 8 12 -5 14 -3 7 8 -13 21 -14 39 -1 39 7 0 6 4 -2 9 -13 8 -13 12 0 27 9
11 9 15 2 10 -7 -4 -13 -2 -13 3 0 6 6 11 13 11 6 0 4 5 -6 11 -18 10 -18 11
0 32 17 20 17 20 -1 13 -16 -5 -17 -4 -6 9 7 8 9 15 5 15 -4 0 -1 8 6 17 10
11 10 14 2 9 -7 -4 -13 -3 -13 3 0 5 4 12 8 15 10 6 9 62 -1 72 -4 4 -1 14 6
22 9 13 9 14 0 8 -9 -5 -13 0 -13 14 0 13 4 18 11 15 6 -4 5 3 -3 14 -11 18
-11 23 2 31 10 6 11 10 3 10 -7 0 -13 7 -13 15 0 8 5 15 11 15 6 0 3 7 -5 16
-19 19 -21 31 -3 16 10 -8 13 -6 13 8 0 10 -4 16 -8 14 -4 -3 -8 2 -8 11 0 9
5 13 11 10 6 -4 5 3 -3 14 -11 18 -11 23 2 31 10 6 11 10 3 10 -7 0 -13 7 -13
15 0 8 5 15 11 15 6 0 3 7 -5 16 -19 19 -21 31 -3 15 11 -8 13 -7 12 7 0 9 -4
23 -9 30 -4 7 -2 12 6 12 10 0 9 3 -2 11 -12 9 -13 12 -1 16 11 5 11 7 0 14
-12 8 -12 10 -1 18 11 6 10 10 -4 15 -13 5 -15 9 -6 18 15 15 16 32 2 23 -5
-3 -10 -1 -10 4 0 6 4 11 9 11 6 0 8 10 6 22 -3 12 1 28 8 37 9 12 9 13 0 7
-8 -4 -13 -1 -13 9 0 10 5 14 13 9 10 -6 10 -4 0 7 -7 7 -13 17 -13 22 0 4 6
5 13 1 9 -5 9 -4 0 6 -10 11 -10 17 0 29 9 12 9 13 0 7 -9 -5 -13 0 -13 14 0
13 4 18 11 15 6 -4 5 3 -3 14 -11 18 -11 23 2 31 10 6 11 10 3 10 -7 0 -13 7
-13 15 0 8 6 15 13 15 8 0 7 4 -3 10 -13 8 -13 13 -2 31 8 11 9 18 3 14 -6 -3
-11 1 -11 10 0 9 5 13 11 10 6 -4 5 3 -3 14 -11 18 -11 23 2 31 10 6 11 10 3
10 -7 0 -13 7 -13 15 0 8 5 15 11 15 6 0 3 7 -5 16 -20 19 -20 25 -2 18 15 -6
16 11 3 34 -5 7 -3 12 5 12 10 0 9 3 -2 11 -12 9 -13 12 -1 16 11 5 11 7 0 14
-12 8 -12 10 -1 18 11 6 10 10 -4 15 -13 5 -15 9 -6 18 15 15 16 32 2 23 -5
-3 -10 -1 -10 4 0 6 5 11 12 11 6 0 8 3 5 7 -4 3 -1 13 6 21 9 13 9 14 0 8 -7
-4 -13 -3 -13 3 0 5 4 12 8 15 10 6 9 62 -1 72 -4 4 -1 14 6 22 9 13 9 14 0 8
-9 -5 -13 0 -13 14 0 13 4 18 11 15 6 -4 5 3 -3 15 -11 19 -11 23 1 28 11 4
11 6 0 13 -12 7 -12 12 -1 30 8 11 9 18 3 14 -6 -3 -11 1 -11 10 0 10 5 14 13
9 10 -6 10 -4 0 7 -16 16 -17 43 -2 34 6 -4 5 3 -3 14 -11 18 -11 23 2 31 10
6 11 10 3 10 -7 0 -13 7 -13 15 0 8 5 15 11 15 6 0 3 7 -5 16 -19 19 -21 31
-3 15 11 -8 13 -7 12 7 0 9 -4 23 -9 30 -4 7 -2 12 6 12 10 0 9 3 -1 9 -13 8
-13 12 0 27 9 11 9 15 2 10 -7 -4 -13 -3 -13 3 0 5 5 13 10 16 13 8 13 25 -1
25 -5 0 -7 -5 -3 -12 5 -7 3 -8 -5 -3 -9 5 -6 14 11 33 13 15 15 21 6 13 -15
-11 -17 -10 -15 8 1 12 6 21 12 21 5 0 3 5 -5 10 -12 8 -13 12 -2 19 11 6 10
10 -4 15 -13 5 -15 9 -6 18 15 15 16 32 2 23 -5 -3 -10 -1 -10 4 0 6 5 11 12
11 6 0 8 3 5 7 -4 3 -1 13 6 21 9 13 9 14 0 8 -9 -5 -13 -1 -13 13 0 11 4 22
9 25 10 7 9 25 -2 44 -5 7 -3 12 5 12 9 0 9 3 2 8 -6 4 -13 17 -16 29 -5 20
-4 21 13 12 11 -5 19 -6 18 -2 -3 19 4 26 8 8 3 -11 10 -24 15 -30z m-45 -60
c0 -8 -4 -12 -9 -9 -5 3 -6 10 -3 15 9 13 12 11 12 -6z m-277 -419 c0 -3 -4
-8 -10 -11 -5 -3 -10 -1 -10 4 0 6 5 11 10 11 6 0 10 -2 10 -4z m280 -320 c0
-3 -4 -8 -10 -11 -5 -3 -10 -1 -10 4 0 6 5 11 10 11 6 0 10 -2 10 -4z m-955
-16 c-3 -5 -11 -10 -16 -10 -6 0 -7 5 -4 10 3 6 11 10 16 10 6 0 7 -4 4 -10z
m952 -25 c0 -8 -4 -12 -9 -9 -5 3 -6 10 -3 15 9 13 12 11 12 -6z m-277 -119
c0 -3 -4 -8 -10 -11 -5 -3 -10 -1 -10 4 0 6 5 11 10 11 6 0 10 -2 10 -4z
m-675 -496 c-3 -5 -11 -10 -16 -10 -6 0 -7 5 -4 10 3 6 11 10 16 10 6 0 7 -4
4 -10z m675 -304 c0 -3 -4 -8 -10 -11 -5 -3 -10 -1 -10 4 0 6 5 11 10 11 6 0
10 -2 10 -4z m280 -320 c0 -3 -4 -8 -10 -11 -5 -3 -10 -1 -10 4 0 6 5 11 10
11 6 0 10 -2 10 -4z m-3 -41 c0 -8 -4 -12 -9 -9 -5 3 -6 10 -3 15 9 13 12 11
12 -6z m-277 -119 c0 -3 -4 -8 -10 -11 -5 -3 -10 -1 -10 4 0 6 5 11 10 11 6 0
10 -2 10 -4z m-675 -176 c-3 -5 -11 -10 -16 -10 -6 0 -7 5 -4 10 3 6 11 10 16
10 6 0 7 -4 4 -10z m675 -144 c0 -3 -4 -8 -10 -11 -5 -3 -10 -1 -10 4 0 6 5
11 10 11 6 0 10 -2 10 -4z m280 -160 c0 -3 -4 -8 -10 -11 -5 -3 -10 -1 -10 4
0 6 5 11 10 11 6 0 10 -2 10 -4z m-3 -41 c0 -8 -4 -12 -9 -9 -5 3 -6 10 -3 15
9 13 12 11 12 -6z m-2524 -272 c-4 -10 -9 -11 -19 -2 -18 15 -18 15 5 15 11 0
17 -5 14 -13z m2527 -327 c0 -3 -4 -8 -10 -11 -5 -3 -10 -1 -10 4 0 6 5 11 10
11 6 0 10 -2 10 -4z m-955 -16 c-3 -5 -11 -10 -16 -10 -6 0 -7 5 -4 10 3 6 11
10 16 10 6 0 7 -4 4 -10z m952 -25 c0 -8 -4 -12 -9 -9 -5 3 -6 10 -3 15 9 13
12 11 12 -6z m-1382 -115 c3 -6 -1 -7 -9 -4 -18 7 -21 14 -7 14 6 0 13 -4 16
-10z m1716 -707 c13 -16 12 -17 -3 -4 -10 7 -18 15 -18 17 0 8 8 3 21 -13z
m-1714 -108 c0 -8 -4 -12 -9 -9 -5 3 -6 10 -3 15 9 13 12 11 12 -6z m841 -340
c-3 -3 -9 2 -12 12 -6 14 -5 15 5 6 7 -7 10 -15 7 -18z m-1053 -203 c-3 -3
-11 0 -18 7 -9 10 -8 11 6 5 10 -3 15 -9 12 -12z m1122 -1377 c0 -8 -4 -12 -9
-9 -5 3 -6 10 -3 15 9 13 12 11 12 -6z m19 -572 c-10 -11 -19 -7 -22 10 -2 15
0 16 12 6 8 -6 12 -14 10 -16z"/>
<path d="M1580 4646 c0 -2 8 -10 18 -17 15 -13 16 -12 3 4 -13 16 -21 21 -21
13z"/>
<path d="M6400 4410 c-9 -6 -10 -10 -3 -10 6 0 15 5 18 10 8 12 4 12 -15 0z"/>
<path d="M3936 6852 c-3 -5 1 -9 9 -9 8 0 12 4 9 9 -3 4 -7 8 -9 8 -2 0 -6 -4
-9 -8z"/>
<path d="M3936 6372 c-3 -5 1 -9 9 -9 8 0 12 4 9 9 -3 4 -7 8 -9 8 -2 0 -6 -4
-9 -8z"/>
<path d="M3936 5892 c-3 -5 1 -9 9 -9 8 0 12 4 9 9 -3 4 -7 8 -9 8 -2 0 -6 -4
-9 -8z"/>
<path d="M3936 5572 c-3 -5 1 -9 9 -9 8 0 12 4 9 9 -3 4 -7 8 -9 8 -2 0 -6 -4
-9 -8z"/>
<path d="M3936 5092 c-3 -5 1 -9 9 -9 8 0 12 4 9 9 -3 4 -7 8 -9 8 -2 0 -6 -4
-9 -8z"/>
<path d="M3936 4612 c-3 -5 1 -9 9 -9 8 0 12 4 9 9 -3 4 -7 8 -9 8 -2 0 -6 -4
-9 -8z"/>
<path d="M3936 4292 c-3 -5 1 -9 9 -9 8 0 12 4 9 9 -3 4 -7 8 -9 8 -2 0 -6 -4
-9 -8z"/>
<path d="M3936 3812 c-3 -5 1 -9 9 -9 8 0 12 4 9 9 -3 4 -7 8 -9 8 -2 0 -6 -4
-9 -8z"/>
<path d="M3936 3332 c-3 -5 1 -9 9 -9 8 0 12 4 9 9 -3 4 -7 8 -9 8 -2 0 -6 -4
-9 -8z"/>
<path d="M4365 3041 c-3 -5 -2 -12 3 -15 5 -3 9 1 9 9 0 17 -3 19 -12 6z"/>
<path d="M4666 3194 c-11 -8 -16 -14 -10 -14 13 0 39 18 34 24 -3 2 -14 -2
-24 -10z"/>
<path d="M1143 7605 c0 -8 4 -12 9 -9 5 3 6 10 3 15 -9 13 -12 11 -12 -6z"/>
<path d="M4046 2398 c3 -5 10 -6 15 -3 13 9 11 12 -6 12 -8 0 -12 -4 -9 -9z"/>
<path d="M3043 2235 c0 -8 4 -12 9 -9 5 3 6 10 3 15 -9 13 -12 11 -12 -6z"/>
<path d="M4086 1881 c-3 -5 1 -11 9 -14 9 -4 12 -1 8 9 -6 16 -10 17 -17 5z"/>
<path d="M4545 1150 c-3 -5 -1 -10 4 -10 6 0 11 5 11 10 0 6 -2 10 -4 10 -3 0
-8 -4 -11 -10z"/>
<path d="M4080 200 c0 -5 5 -10 11 -10 5 0 7 5 4 10 -3 6 -8 10 -11 10 -2 0
-4 -4 -4 -10z"/>
<path d="M4142 191 c-11 -6 -10 -10 4 -15 9 -3 19 -4 22 -1 3 3 0 5 -7 5 -7 0
-9 5 -6 10 7 12 4 12 -13 1z"/>
<path d="M4096 167 c3 -10 9 -15 12 -12 3 3 0 11 -7 18 -10 9 -11 8 -5 -6z"/>
<path d="M4135 76 c-36 -29 -43 -66 -11 -59 17 4 18 3 6 -7 -12 -9 -9 -10 15
-8 21 2 30 8 29 21 -1 9 3 17 8 17 6 0 0 9 -13 20 -13 10 -19 19 -12 20 6 0
13 -6 16 -12 2 -7 7 -10 11 -7 3 3 0 13 -7 22 -11 16 -14 15 -42 -7z"/>
<path d="M4110 81 c0 -7 -5 -9 -12 -5 -7 5 -8 3 -3 -5 5 -9 10 -10 18 -2 6 6
8 14 4 18 -4 3 -7 1 -7 -6z"/>
</g>
</svg>
